<?xml version="1.0" encoding="utf-8"?>
<!-- Generator: Adobe Illustrator 25.2.1, SVG Export Plug-In . SVG Version: 6.00 Build 0)  -->
<svg version="1.1" id="Camada_1" xmlns="http://www.w3.org/2000/svg" xmlns:xlink="http://www.w3.org/1999/xlink" x="0px" y="0px"
	 viewBox="0 0 833.3 863.2" style="enable-background:new 0 0 833.3 863.2;" xml:space="preserve">
<style type="text/css">
	.st0{enable-background:new    ;}
	.st1{fill:#FFFFFF;}
	.st2{fill:#9CC4FF;}
	.st3{fill:url(#SVGID_1_);}
	.st4{fill:url(#SVGID_2_);}
	.st5{fill:url(#SVGID_3_);}
	.st6{fill:url(#SVGID_4_);}
	.st7{fill:url(#SVGID_5_);}
	.st8{fill:url(#SVGID_6_);}
	.st9{fill:url(#SVGID_7_);}
	.st10{fill:url(#SVGID_8_);}
	.st11{fill:url(#SVGID_9_);}
	.st12{fill:url(#SVGID_10_);}
	.st13{fill:url(#SVGID_11_);}
	.st14{fill:url(#SVGID_12_);}
	.st15{fill:url(#SVGID_13_);}
	.st16{fill:url(#SVGID_14_);}
	.st17{fill:url(#SVGID_15_);}
	.st18{fill:url(#SVGID_16_);}
	.st19{fill:url(#SVGID_17_);}
	.st20{fill:url(#SVGID_18_);}
	.st21{fill:url(#SVGID_19_);}
	.st22{fill:url(#SVGID_20_);}
	.st23{fill:url(#SVGID_21_);}
	.st24{fill:url(#SVGID_22_);}
	.st25{fill:url(#SVGID_23_);}
	.st26{fill:url(#SVGID_24_);}
	.st27{fill:url(#SVGID_25_);}
	.st28{fill:url(#SVGID_26_);}
	.st29{fill:url(#SVGID_27_);}
	.st30{fill:url(#SVGID_28_);}
	.st31{fill:url(#SVGID_29_);}
	.st32{fill:url(#SVGID_30_);}
	.st33{fill:url(#SVGID_31_);}
	.st34{fill:url(#SVGID_32_);}
	.st35{fill:url(#SVGID_33_);}
	.st36{fill:url(#SVGID_34_);}
	.st37{fill:url(#SVGID_35_);}
	.st38{fill:url(#SVGID_36_);}
	.st39{fill:url(#SVGID_37_);}
	.st40{fill:url(#SVGID_38_);}
	.st41{fill:url(#SVGID_39_);}
	.st42{fill:url(#SVGID_40_);}
	.st43{fill:url(#SVGID_41_);}
	.st44{fill:url(#SVGID_42_);}
	.st45{fill:url(#SVGID_43_);}
	.st46{fill:url(#SVGID_44_);}
	.st47{fill:url(#SVGID_45_);}
	.st48{fill:url(#SVGID_46_);}
	.st49{fill:url(#SVGID_47_);}
	.st50{fill:url(#SVGID_48_);}
	.st51{fill:url(#SVGID_49_);}
	.st52{fill:url(#SVGID_50_);}
	.st53{fill:url(#SVGID_51_);}
	.st54{fill:url(#SVGID_52_);}
	.st55{fill:url(#SVGID_53_);}
	.st56{fill:url(#SVGID_54_);}
	.st57{fill:url(#SVGID_55_);}
	.st58{fill:url(#SVGID_56_);}
	.st59{fill:url(#SVGID_57_);}
	.st60{fill:url(#SVGID_58_);}
	.st61{fill:url(#SVGID_59_);}
	.st62{fill:url(#SVGID_60_);}
	.st63{fill:url(#SVGID_61_);}
	.st64{fill:url(#SVGID_62_);}
	.st65{fill:url(#SVGID_63_);}
	.st66{fill:url(#SVGID_64_);}
	.st67{fill:url(#SVGID_65_);}
	.st68{fill:url(#SVGID_66_);}
	.st69{fill:url(#SVGID_67_);}
	.st70{fill:url(#SVGID_68_);}
	.st71{fill:url(#SVGID_69_);}
</style>
<g class="st0">
	<path class="st1" d="M68.5,772.9h39v6.3H91.4v43.6h-6.8v-43.6h-16V772.9z"/>
	<path class="st1" d="M140.9,772.9h34.6v6.2h-27.8v15.4h24.9v6.2h-24.9v15.9h28.6v6.2h-35.5V772.9z"/>
	<path class="st1" d="M242.6,780.2c-2.5-1.1-5.1-1.7-7.8-1.7c-3.5,0-6.8,0.8-9.7,2.6c-2.9,1.7-5.3,4-7,7c-1.7,2.9-2.6,6.1-2.6,9.7
		c0,3.5,0.9,6.7,2.6,9.6c1.7,3,4,5.3,7,7c2.9,1.7,6.2,2.6,9.7,2.6c2.6,0,5.2-0.5,7.7-1.6c2.5-1.1,4.8-2.5,6.7-4.4l4.1,4.5
		c-2.5,2.5-5.4,4.4-8.8,5.8s-6.7,2.1-10.1,2.1c-4.8,0-9.1-1.1-13-3.4c-3.9-2.3-7.1-5.3-9.3-9.2c-2.3-3.9-3.4-8.2-3.4-12.9
		c0-4.7,1.1-8.9,3.5-12.8c2.3-3.9,5.4-6.9,9.4-9.2c4-2.2,8.4-3.3,13.2-3.3c3.5,0,6.8,0.7,10.1,2s6.1,3.2,8.4,5.5l-4.1,4.9
		C247.4,782.8,245.2,781.3,242.6,780.2z"/>
	<path class="st1" d="M324.1,772.9h6.8v49.9h-6.9l-28.5-38.6v38.6h-6.8v-49.9h6.9l28.6,38.7L324.1,772.9L324.1,772.9z"/>
	<path class="st1" d="M405.9,775.8c4,2.2,7.2,5.3,9.5,9.2c2.3,3.9,3.5,8.1,3.5,12.8c0,4.7-1.2,8.9-3.5,12.9s-5.5,7-9.5,9.3
		c-4,2.3-8.4,3.4-13.2,3.4s-9.2-1.1-13.2-3.4c-4-2.3-7.2-5.3-9.5-9.3c-2.3-3.9-3.5-8.2-3.5-12.9c0-4.7,1.2-8.9,3.5-12.8
		s5.5-6.9,9.5-9.2c4-2.2,8.4-3.3,13.2-3.3C397.4,772.4,401.8,773.5,405.9,775.8z M383.1,781.1c-3,1.7-5.3,4-7.1,7s-2.6,6.1-2.6,9.7
		s0.9,6.8,2.6,9.7c1.8,3,4.1,5.3,7.1,7c3,1.7,6.2,2.6,9.7,2.6s6.7-0.9,9.6-2.6c2.9-1.7,5.2-4.1,7-7s2.6-6.2,2.6-9.7
		s-0.9-6.7-2.6-9.7c-1.7-2.9-4.1-5.2-7-7s-6.1-2.6-9.6-2.6C389.2,778.6,386,779.4,383.1,781.1z"/>
	<path class="st1" d="M454.4,772.9h6.8v43.7H483v6.2h-28.6V772.9z"/>
	<path class="st1" d="M552.4,775.8c4,2.2,7.2,5.3,9.5,9.2s3.5,8.1,3.5,12.8c0,4.7-1.2,8.9-3.5,12.9c-2.3,3.9-5.5,7-9.5,9.3
		c-4,2.3-8.4,3.4-13.2,3.4s-9.2-1.1-13.2-3.4c-4-2.3-7.2-5.3-9.5-9.3c-2.3-3.9-3.5-8.2-3.5-12.9c0-4.7,1.2-8.9,3.5-12.8
		s5.5-6.9,9.5-9.2c4-2.2,8.4-3.3,13.2-3.3C544,772.4,548.3,773.5,552.4,775.8z M529.6,781.1c-3,1.7-5.3,4-7.1,7s-2.6,6.1-2.6,9.7
		s0.9,6.8,2.6,9.7c1.8,3,4.1,5.3,7.1,7c3,1.7,6.2,2.6,9.7,2.6s6.7-0.9,9.6-2.6c2.9-1.7,5.2-4.1,7-7s2.6-6.2,2.6-9.7
		s-0.9-6.7-2.6-9.7c-1.7-2.9-4.1-5.2-7-7s-6.1-2.6-9.6-2.6C535.8,778.6,532.5,779.4,529.6,781.1z"/>
	<path class="st1" d="M633.8,798.4h6.1v18.3c-2.5,2-5.5,3.6-8.8,4.8c-3.4,1.2-6.7,1.8-10,1.8c-4.8,0-9.2-1.1-13.2-3.4
		c-4-2.3-7.1-5.3-9.4-9.3s-3.5-8.2-3.5-12.9c0-4.7,1.2-8.9,3.5-12.8s5.5-6.9,9.5-9.2c4-2.2,8.5-3.3,13.4-3.3c3.5,0,6.8,0.6,10.2,1.8
		c3.3,1.2,6.2,2.9,8.6,5.1l-3.9,5c-2-1.8-4.3-3.3-6.9-4.3s-5.2-1.5-8-1.5c-3.6,0-6.8,0.8-9.8,2.6c-3,1.7-5.4,4-7.1,7
		c-1.7,3-2.6,6.2-2.6,9.7s0.9,6.8,2.6,9.7s4.1,5.3,7.1,7c3,1.7,6.3,2.6,9.8,2.6c2.1,0,4.2-0.3,6.4-1c2.2-0.7,4.2-1.7,6-2.9
		L633.8,798.4L633.8,798.4z"/>
	<path class="st1" d="M678.5,772.9h6.8v49.9h-6.8V772.9z"/>
	<path class="st1" d="M762.3,822.8l-5.3-12.1h-26.3l-5.2,12.1h-7.2l22.2-49.9h7.1l22.1,49.9H762.3z M733.4,804.4h21l-10.6-24.2
		L733.4,804.4z"/>
</g>
<g>
	<g>
		<g>
			<path class="st2" d="M704.7,339.2c0-28.5-14.2-60.2-44.3-69.8c-50.7,22.1-120.5,31.6-196.5,37.9c15.9-55.4,25.5-118.8,25.5-137.8
				c0.1-85.6-49-128.4-106.1-128.4c-26.9,0-52.3,7.9-65,23.7c0,60.2-12.8,172.7-28.7,253.5c-30.1,1.6-63.4,4.7-99.8,6.3
				C77.3,332.4,36,376.7,36,424.3c0,7.5,1.6,17.1,5.2,25.7c4,9.5,13.1,15.7,23.3,16.3c48.1,2.9,126.5,5.6,191.7,5.7
				c-7.9,39.6-15.9,98.2-15.9,128.3c-0.1,72.9,30,112.5,76,112.6c22.2,0,42.8-6.3,50.7-14.2c11.1-47.5,46.1-160,62-228.1
				C634.9,458,704.7,415.3,704.7,339.2z"/>
			<path class="st2" d="M561.3,585.1l-1.1,5.2h-63.9l1.1-5.2c1.5-7.1,4.2-13.7,8.1-19.6s8.8-10.2,14.6-12.7
				c5.8-2.5,11.5-3.8,17.1-3.8s10.6,1.3,15.3,3.8c4.6,2.5,7.6,6.7,9,12.5C563,571,562.9,577.7,561.3,585.1z M602.1,524.8
				c-7.6-8.5-16.2-14.3-25.8-17.6c-9.6-3.3-19.4-5-29.5-5c-13.2,0-25.9,2.4-38,7.1s-22.8,11.2-31.9,19.4c-9.1,8.2-16.8,17.6-23,28.2
				c-6.2,10.6-10.5,21.4-12.9,32.5l-8.9,42c-3.7,17.5-3.1,32.8,1.7,46c4.9,13.2,13.5,23.5,25.8,30.7s28.4,10.9,48.3,10.9
				c16.4,0,34.4-2.8,54.1-8.3c6-1.8,10.5-4.9,13.6-9.1c3.1-4.2,4.6-9,4.4-14.3l-0.4-7.5c-0.5-11.4-7.5-15.6-21.1-12.7
				c-16.1,3.4-29.8,5.2-41.2,5.2c-13.8,0-22.9-3.5-27.3-10.5c-4.5-7-5.3-17.1-2.5-30.3l0.7-3.2h109.1c2.6,0,5.2-1,7.8-3.2
				c2.6-2.1,4.1-4.5,4.7-7.1l6.1-28.6c2.3-10.8,2.5-22.2,0.5-34.1C614.5,543.4,609.7,533.2,602.1,524.8z"/>
			<path class="st2" d="M780.3,590.7l37.7-57.9c3.5-5.3,4.5-9.9,3.2-13.9c-1.4-4-5.2-6-11.2-6h-20.6c-7.1,0-12.6,1.4-16.4,4.2
				c-3.8,2.8-6.8,6-9.2,9.7l-26.9,42.4c-3.6,5.8-8.2,9.5-13.9,11.1l-16.9,4.8l28.6-134.5c1.2-5.5,0.4-10.1-2.5-13.7s-7-5.4-12.5-5.4
				h-17.5c-5.5,0-10.5,1.8-14.8,5.4c-4.3,3.6-7.1,8.1-8.3,13.7L626,700.5c-1.2,5.5-0.4,10.1,2.4,13.7c2.8,3.6,7,5.4,12.5,5.4h17.5
				c5.5,0,10.5-1.8,14.8-5.4s7.1-8.1,8.3-13.7l14.2-66.6l10-2.4l23.9,74.2c3.3,9.3,10.5,13.9,21.6,13.9h20.6
				c5.8,0,10.3-2.2,13.3-6.7c3.1-4.5,3.7-9.4,1.9-14.7L757,614.5C765.8,609.2,773.5,601.2,780.3,590.7z"/>
		</g>
		<g>
			
				<linearGradient id="SVGID_1_" gradientUnits="userSpaceOnUse" x1="199.217" y1="630.6815" x2="624.4319" y2="236.2462" gradientTransform="matrix(1 0 0 -1 0 861.8898)">
				<stop  offset="1.715443e-03" style="stop-color:#9AC7FF"/>
				<stop  offset="0.4647" style="stop-color:#97C0FE"/>
				<stop  offset="1" style="stop-color:#95BBF8"/>
			</linearGradient>
			<path class="st3" d="M703.9,338.7c0-28.5-14.2-60.2-44.3-69.8c-50.7,22.1-120.5,31.6-196.5,37.9C479,251.4,488.5,188,488.5,169
				c0.1-85.6-49-128.4-106.1-128.4c-26.9,0-52.3,7.9-65,23.7c0,60.2-12.8,172.7-28.7,253.5c-30.1,1.6-63.4,4.2-99.8,6.3
				c-112.6,6.3-153.7,52.2-153.8,99.7c0,7.5,1.7,17.3,5.4,26c3.9,9.3,12.9,15.4,23,16c48.1,2.9,126.6,5.6,191.9,5.7
				c-7.9,39.6-15.9,98.2-15.9,128.3c-0.1,72.9,30,112.5,76,112.6c22.2,0,42.8-6.3,50.7-14.2c11.1-47.5,46.1-160,62-228.1
				C634.1,457.5,703.8,414.8,703.9,338.7z"/>
			
				<linearGradient id="SVGID_2_" gradientUnits="userSpaceOnUse" x1="153.9678" y1="594.1445" x2="579.1926" y2="199.7" gradientTransform="matrix(1 0 0 -1 0 861.8898)">
				<stop  offset="1.715443e-03" style="stop-color:#9AC7FF"/>
				<stop  offset="0.4647" style="stop-color:#97C0FE"/>
				<stop  offset="1" style="stop-color:#95BBF8"/>
			</linearGradient>
			<path class="st4" d="M560.9,584.7l-1.1,5.2h-63.9l1.1-5.2c1.5-7.1,4.2-13.7,8.1-19.6s8.8-10.2,14.6-12.7
				c5.8-2.5,11.5-3.8,17.1-3.8s10.6,1.3,15.3,3.8c4.6,2.5,7.6,6.7,9,12.5C562.5,570.7,562.4,577.3,560.9,584.7z M601.6,524.4
				c-7.6-8.5-16.2-14.3-25.8-17.6c-9.6-3.3-19.4-5-29.5-5c-13.2,0-25.9,2.4-38,7.1s-22.8,11.2-31.9,19.4c-9.1,8.2-16.8,17.6-23,28.2
				c-6.2,10.6-10.5,21.4-12.9,32.5l-8.9,42c-3.7,17.5-3.1,32.8,1.7,46c4.9,13.2,13.5,23.5,25.8,30.7s28.4,10.9,48.3,10.9
				c16.4,0,34.5-2.5,54.1-8.3c6-1.8,10.5-4.9,13.6-9.1c3.1-4.2,4.6-9,4.4-14.3l-0.4-7.5c-0.5-11.4-7.5-15.6-21.1-12.7
				c-16.1,3.4-29.8,5.2-41.2,5.2c-13.8,0-22.9-3.5-27.3-10.5c-4.5-7-5.3-17.1-2.5-30.3l0.7-3.2h109.1c2.6,0,5.2-1,7.8-3.2
				c2.6-2.1,4.1-4.5,4.7-7.1l6.1-28.6c2.3-10.8,2.5-22.2,0.5-34.1C614,543,609.2,532.8,601.6,524.4z"/>
			
				<linearGradient id="SVGID_3_" gradientUnits="userSpaceOnUse" x1="244.3111" y1="691.5235" x2="669.5261" y2="297.0882" gradientTransform="matrix(1 0 0 -1 0 861.8898)">
				<stop  offset="1.715443e-03" style="stop-color:#9AC7FF"/>
				<stop  offset="0.4647" style="stop-color:#97C0FE"/>
				<stop  offset="1" style="stop-color:#95BBF8"/>
			</linearGradient>
			<path class="st5" d="M779.8,590.3l37.7-57.9c3.5-5.3,4.5-9.9,3.2-13.9c-1.4-4-5.2-6-11.2-6h-20.6c-7.1,0-12.6,1.4-16.4,4.2
				c-3.8,2.8-6.8,6-9.2,9.7l-26.9,42.4c-3.6,5.8-8.2,9.5-13.9,11.1l-16.9,4.8l28.6-134.5c1.2-5.5,0.4-10.1-2.5-13.7s-7-5.4-12.5-5.4
				h-17.5c-5.5,0-10.5,1.8-14.8,5.4c-4.3,3.6-7.1,8.1-8.3,13.7l-53.1,249.9c-1.2,5.5-0.4,10.1,2.4,13.7c2.8,3.6,7,5.4,12.5,5.4H658
				c5.5,0,10.5-1.8,14.8-5.4s7.1-8.1,8.3-13.7l14.2-66.6l10-2.4l23.9,74.2c3.3,9.3,10.5,13.9,21.6,13.9h20.6
				c5.8,0,10.3-2.2,13.3-6.7c3.1-4.5,3.7-9.4,1.9-14.7l-30.2-83.7C765.3,608.8,773.1,600.9,779.8,590.3z"/>
		</g>
		<g>
			
				<linearGradient id="SVGID_4_" gradientUnits="userSpaceOnUse" x1="198.3615" y1="631.1917" x2="623.5764" y2="236.7563" gradientTransform="matrix(1 0 0 -1 0 861.8898)">
				<stop  offset="1.715443e-03" style="stop-color:#98C9FF"/>
				<stop  offset="0.4647" style="stop-color:#92BCFD"/>
				<stop  offset="1" style="stop-color:#8EB3F1"/>
			</linearGradient>
			<path class="st6" d="M703,338.2c0-28.5-14.2-60.2-44.3-69.8C608,290.6,538.3,300,462.2,306.3c15.9-55.4,25.5-118.8,25.5-137.8
				c0.1-85.6-49-128.4-106.1-128.4c-26.9,0-52.3,7.9-65,23.7c0,60.2-12.8,172.7-28.7,253.5c-30.1,1.6-63.4,4.2-99.8,6.3
				c-112.6,6.3-153.7,52.2-153.8,99.7c0,7.6,1.7,17.5,5.5,26.3c3.9,9.1,12.8,15.1,22.7,15.8c48.1,2.9,126.7,5.6,192.1,5.7
				c-7.9,39.6-15.9,98.2-15.9,128.3c-0.1,72.9,30,112.5,76,112.6c22.2,0,42.8-6.3,50.7-14.2c11.1-47.5,46.1-160,62-228.1
				C633.2,457,703,414.3,703,338.2z"/>
			
				<linearGradient id="SVGID_5_" gradientUnits="userSpaceOnUse" x1="153.5171" y1="594.5352" x2="578.7419" y2="200.0907" gradientTransform="matrix(1 0 0 -1 0 861.8898)">
				<stop  offset="1.715443e-03" style="stop-color:#98C9FF"/>
				<stop  offset="0.4647" style="stop-color:#92BCFD"/>
				<stop  offset="1" style="stop-color:#8EB3F1"/>
			</linearGradient>
			<path class="st7" d="M560.4,584.3l-1.1,5.2h-63.9l1.1-5.2c1.5-7.1,4.2-13.7,8.1-19.6s8.8-10.2,14.6-12.7
				c5.8-2.5,11.5-3.8,17.1-3.8s10.6,1.3,15.3,3.8c4.6,2.5,7.6,6.7,9,12.5C562.1,570.3,562,576.9,560.4,584.3z M601.2,524
				c-7.6-8.5-16.2-14.3-25.8-17.6c-9.6-3.3-19.4-5-29.5-5c-13.2,0-25.9,2.4-38,7.1S485.1,519.8,476,528c-9.1,8.2-16.8,17.6-23,28.2
				c-6.2,10.6-10.5,21.4-12.9,32.5l-8.9,42c-3.7,17.5-3.1,32.8,1.7,46c4.9,13.2,13.5,23.5,25.8,30.7s28.4,10.9,48.3,10.9
				c16.4,0,34.5-2.5,54.1-8.3c6-1.8,10.5-4.9,13.6-9.1c3.1-4.2,4.6-9,4.4-14.3l-0.4-7.5c-0.5-11.4-7.5-15.6-21.1-12.7
				c-16.1,3.4-29.8,5.2-41.2,5.2c-13.8,0-22.9-3.5-27.3-10.5c-4.5-7-5.3-17.1-2.5-30.3l0.7-3.2h109.1c2.6,0,5.2-1,7.8-3.2
				c2.6-2.1,4.1-4.5,4.7-7.1l6.1-28.6c2.3-10.8,2.5-22.2,0.5-34.1C613.5,542.6,608.8,532.5,601.2,524z"/>
			
				<linearGradient id="SVGID_6_" gradientUnits="userSpaceOnUse" x1="243.8604" y1="691.9142" x2="669.0753" y2="297.4789" gradientTransform="matrix(1 0 0 -1 0 861.8898)">
				<stop  offset="1.715443e-03" style="stop-color:#98C9FF"/>
				<stop  offset="0.4647" style="stop-color:#92BCFD"/>
				<stop  offset="1" style="stop-color:#8EB3F1"/>
			</linearGradient>
			<path class="st8" d="M779.4,589.9l37.7-57.9c3.5-5.3,4.5-9.9,3.2-13.9c-1.4-4-5.2-6-11.2-6h-20.6c-7.1,0-12.6,1.4-16.4,4.2
				c-3.8,2.8-6.8,6-9.2,9.7l-26.9,42.4c-3.6,5.8-8.2,9.5-13.9,11.1l-16.9,4.8l28.6-134.5c1.2-5.5,0.4-10.1-2.5-13.7s-7-5.4-12.5-5.4
				h-17.5c-5.5,0-10.5,1.8-14.8,5.4c-4.3,3.6-7.1,8.1-8.3,13.7l-53.1,249.9c-1.2,5.5-0.4,10.1,2.4,13.7c2.8,3.6,7,5.4,12.5,5.4h17.5
				c5.5,0,10.5-1.8,14.8-5.4s7.1-8.1,8.3-13.7l14.2-66.6l10-2.4l23.9,74.2c3.3,9.3,10.5,13.9,21.6,13.9H771c5.8,0,10.3-2.2,13.3-6.7
				c3.1-4.5,3.7-9.4,1.9-14.7l-30.2-83.7C764.8,608.4,772.6,600.5,779.4,589.9z"/>
		</g>
		<g>
			
				<linearGradient id="SVGID_7_" gradientUnits="userSpaceOnUse" x1="197.5159" y1="631.7125" x2="622.7308" y2="237.2771" gradientTransform="matrix(1 0 0 -1 0 861.8898)">
				<stop  offset="1.715443e-03" style="stop-color:#96CCFF"/>
				<stop  offset="0.4647" style="stop-color:#8EB8FB"/>
				<stop  offset="1" style="stop-color:#88AAEB"/>
			</linearGradient>
			<path class="st9" d="M702.2,337.7c0-28.5-14.2-60.2-44.3-69.8c-50.7,22.1-120.5,31.6-196.5,37.9c15.9-55.4,25.5-118.8,25.5-137.8
				c0.1-85.6-49-128.4-106.1-128.4c-26.9,0-52.3,7.9-65,23.7c0,60.2-12.8,172.7-28.7,253.5c-30.1,1.6-63.4,4.2-99.8,6.3
				c-112.6,6.3-153.7,52.2-153.8,99.7c0,7.7,1.8,17.7,5.6,26.5c3.9,9,12.6,14.9,22.4,15.5c48,2.9,126.8,5.7,192.2,5.7
				c-7.9,39.6-15.9,98.2-15.9,128.3c-0.1,72.9,30,112.5,76,112.6c22.2,0,42.8-6.3,50.7-14.2c11.1-47.5,46.1-160,62-228.1
				C632.4,456.5,702.1,413.8,702.2,337.7z"/>
			
				<linearGradient id="SVGID_8_" gradientUnits="userSpaceOnUse" x1="153.0567" y1="594.9154" x2="578.2816" y2="200.4709" gradientTransform="matrix(1 0 0 -1 0 861.8898)">
				<stop  offset="1.715443e-03" style="stop-color:#96CCFF"/>
				<stop  offset="0.4647" style="stop-color:#8EB8FB"/>
				<stop  offset="1" style="stop-color:#88AAEB"/>
			</linearGradient>
			<path class="st10" d="M560,583.9l-1.1,5.2H495l1.1-5.2c1.5-7.1,4.2-13.7,8.1-19.6s8.8-10.2,14.6-12.7c5.8-2.5,11.5-3.8,17.1-3.8
				s10.6,1.3,15.3,3.8c4.6,2.5,7.6,6.7,9,12.5C561.6,569.9,561.5,576.5,560,583.9z M600.7,523.6c-7.6-8.5-16.2-14.3-25.8-17.6
				c-9.6-3.3-19.4-5-29.5-5c-13.2,0-25.9,2.4-38,7.1s-22.8,11.2-31.9,19.4c-9.1,8.2-16.8,17.6-23,28.2
				c-6.2,10.6-10.5,21.4-12.9,32.5l-8.9,42c-3.7,17.5-3.1,32.8,1.7,46c4.9,13.2,13.5,23.5,25.8,30.7s28.4,10.9,48.3,10.9
				c16.4,0,34.5-2.5,54.1-8.3c6-1.8,10.5-4.9,13.6-9.1c3.1-4.2,4.6-9,4.4-14.3l-0.4-7.5c-0.5-11.4-7.5-15.6-21.1-12.7
				c-16.1,3.4-29.8,5.2-41.2,5.2c-13.8,0-22.9-3.5-27.3-10.5c-4.5-7-5.3-17.1-2.5-30.3l0.7-3.2H596c2.6,0,5.2-1,7.8-3.2
				c2.6-2.1,4.1-4.5,4.7-7.1l6.1-28.6c2.3-10.8,2.5-22.2,0.5-34.1C613.1,542.2,608.3,532.1,600.7,523.6z"/>
			
				<linearGradient id="SVGID_9_" gradientUnits="userSpaceOnUse" x1="243.4074" y1="692.3024" x2="668.6223" y2="297.867" gradientTransform="matrix(1 0 0 -1 0 861.8898)">
				<stop  offset="1.715443e-03" style="stop-color:#96CCFF"/>
				<stop  offset="0.4647" style="stop-color:#8EB8FB"/>
				<stop  offset="1" style="stop-color:#88AAEB"/>
			</linearGradient>
			<path class="st11" d="M778.9,589.5l37.7-57.9c3.5-5.3,4.5-9.9,3.2-13.9c-1.4-4-5.2-6-11.2-6h-20.6c-7.1,0-12.6,1.4-16.4,4.2
				c-3.8,2.8-6.8,6-9.2,9.7l-26.9,42.4c-3.6,5.8-8.2,9.5-13.9,11.1l-16.9,4.8l28.6-134.5c1.2-5.5,0.4-10.1-2.5-13.7s-7-5.4-12.5-5.4
				h-17.5c-5.5,0-10.5,1.8-14.8,5.4c-4.3,3.6-7.1,8.1-8.3,13.7l-53.1,249.9c-1.2,5.5-0.4,10.1,2.4,13.7c2.8,3.6,7,5.4,12.5,5.4h17.5
				c5.5,0,10.5-1.8,14.8-5.4s7.1-8.1,8.3-13.7l14.2-66.6l10-2.4l23.9,74.2c3.3,9.3,10.5,13.9,21.6,13.9h20.6
				c5.8,0,10.3-2.2,13.3-6.7c3.1-4.5,3.7-9.4,1.9-14.7l-30.2-83.7C764.4,608,772.2,600.1,778.9,589.5z"/>
		</g>
		<g>
			
				<linearGradient id="SVGID_10_" gradientUnits="userSpaceOnUse" x1="196.6679" y1="632.2307" x2="621.8828" y2="237.7955" gradientTransform="matrix(1 0 0 -1 0 861.8898)">
				<stop  offset="1.715443e-03" style="stop-color:#93CEFF"/>
				<stop  offset="0.4647" style="stop-color:#89B4FA"/>
				<stop  offset="1" style="stop-color:#81A2E4"/>
			</linearGradient>
			<path class="st12" d="M701.3,337.2c0-28.5-14.2-60.2-44.3-69.8c-50.7,22.1-120.5,31.6-196.5,37.9
				c15.9-55.4,25.5-118.8,25.5-137.8C486,81.9,437,39.1,379.9,39c-26.9,0-52.3,7.9-65,23.7c0,60.2-12.8,172.7-28.7,253.5
				c-30.1,1.6-63.4,4.2-99.8,6.3c-112.6,6.3-153.7,52.2-153.8,99.7c0,7.8,1.8,17.9,5.8,26.8c3.9,8.8,12.4,14.6,22,15.2
				c48,2.9,126.9,5.7,192.4,5.7c-7.9,39.6-15.9,98.2-15.9,128.3c-0.1,72.9,30,112.5,76,112.6c22.2,0,42.8-6.3,50.7-14.2
				c11.1-47.5,46.1-160,62-228.1C631.5,456,701.3,413.2,701.3,337.2z"/>
			
				<linearGradient id="SVGID_11_" gradientUnits="userSpaceOnUse" x1="152.606" y1="595.3062" x2="577.8309" y2="200.8617" gradientTransform="matrix(1 0 0 -1 0 861.8898)">
				<stop  offset="1.715443e-03" style="stop-color:#93CEFF"/>
				<stop  offset="0.4647" style="stop-color:#89B4FA"/>
				<stop  offset="1" style="stop-color:#81A2E4"/>
			</linearGradient>
			<path class="st13" d="M559.5,583.5l-1.1,5.2h-63.9l1.1-5.2c1.5-7.1,4.2-13.7,8.1-19.6s8.8-10.2,14.6-12.7
				c5.8-2.5,11.5-3.8,17.1-3.8s10.6,1.3,15.3,3.8c4.6,2.5,7.6,6.7,9,12.5C561.2,569.5,561.1,576.1,559.5,583.5z M600.3,523.2
				c-7.6-8.5-16.2-14.3-25.8-17.6c-9.6-3.3-19.4-5-29.5-5c-13.2,0-25.9,2.4-38,7.1s-22.8,11.2-31.9,19.4c-9.1,8.2-16.8,17.6-23,28.2
				c-6.2,10.6-10.5,21.4-12.9,32.5l-8.9,42c-3.7,17.5-3.1,32.8,1.7,46c4.9,13.2,13.5,23.5,25.8,30.7s28.4,10.9,48.3,10.9
				c16.4,0,34.5-2.5,54.1-8.3c6-1.8,10.5-4.9,13.6-9.1c3.1-4.2,4.6-9,4.4-14.3l-0.4-7.5c-0.5-11.4-7.5-15.6-21.1-12.7
				c-16.1,3.4-29.8,5.2-41.2,5.2c-13.8,0-22.9-3.5-27.3-10.5c-4.5-7-5.3-17.1-2.5-30.3l0.7-3.2h109.1c2.6,0,5.2-1,7.8-3.2
				c2.6-2.1,4.1-4.5,4.7-7.1l6.1-28.6c2.3-10.8,2.5-22.2,0.5-34.1C612.6,541.9,607.9,531.7,600.3,523.2z"/>
			
				<linearGradient id="SVGID_12_" gradientUnits="userSpaceOnUse" x1="242.9543" y1="692.6905" x2="668.1693" y2="298.2552" gradientTransform="matrix(1 0 0 -1 0 861.8898)">
				<stop  offset="1.715443e-03" style="stop-color:#93CEFF"/>
				<stop  offset="0.4647" style="stop-color:#89B4FA"/>
				<stop  offset="1" style="stop-color:#81A2E4"/>
			</linearGradient>
			<path class="st14" d="M778.5,589.1l37.7-57.9c3.5-5.3,4.5-9.9,3.2-13.9c-1.4-4-5.2-6-11.2-6h-20.6c-7.1,0-12.6,1.4-16.4,4.2
				c-3.8,2.8-6.8,6-9.2,9.7L735,567.7c-3.6,5.8-8.2,9.5-13.9,11.1l-16.9,4.8l28.6-134.5c1.2-5.5,0.4-10.1-2.5-13.7s-7-5.4-12.5-5.4
				h-17.5c-5.5,0-10.5,1.8-14.8,5.4c-4.3,3.6-7.1,8.1-8.3,13.7L624.2,699c-1.2,5.5-0.4,10.1,2.4,13.7c2.8,3.6,7,5.4,12.5,5.4h17.5
				c5.5,0,10.5-1.8,14.8-5.4s7.1-8.1,8.3-13.7l14.2-66.6l10-2.4l23.9,74.2c3.3,9.3,10.5,13.9,21.6,13.9h20.6
				c5.8,0,10.3-2.2,13.3-6.7c3.1-4.5,3.7-9.4,1.9-14.7l-30.2-83.7C763.9,607.6,771.7,599.7,778.5,589.1z"/>
		</g>
		<g>
			
				<linearGradient id="SVGID_13_" gradientUnits="userSpaceOnUse" x1="195.81" y1="632.7383" x2="621.0249" y2="238.3031" gradientTransform="matrix(1 0 0 -1 0 861.8898)">
				<stop  offset="1.715443e-03" style="stop-color:#91D1FF"/>
				<stop  offset="0.4647" style="stop-color:#84B0F9"/>
				<stop  offset="1" style="stop-color:#7A99DD"/>
			</linearGradient>
			<path class="st15" d="M700.5,336.7c0-28.5-14.2-60.2-44.3-69.8c-50.7,22.1-120.5,31.6-196.5,37.9
				c15.9-55.4,25.5-118.8,25.5-137.8c0.1-85.6-49-128.4-106.1-128.4c-26.9,0-52.3,7.9-65,23.7c0,60.2-12.8,172.7-28.7,253.5
				c-30.1,1.6-63.4,4.2-99.8,6.3c-112.6,6.3-153.7,52.2-153.8,99.7c0,7.9,1.9,18.1,5.9,27c3.9,8.6,12.3,14.4,21.7,14.9
				c48,2.9,127,5.7,192.6,5.7C244,509,236,567.6,236,597.8c-0.1,72.9,30,112.5,76,112.6c22.2,0,42.8-6.3,50.7-14.2
				c11.1-47.5,46.1-160,62-228.1C630.7,455.5,700.4,412.7,700.5,336.7z"/>
			
				<linearGradient id="SVGID_14_" gradientUnits="userSpaceOnUse" x1="152.1553" y1="595.6968" x2="577.3801" y2="201.2523" gradientTransform="matrix(1 0 0 -1 0 861.8898)">
				<stop  offset="1.715443e-03" style="stop-color:#91D1FF"/>
				<stop  offset="0.4647" style="stop-color:#84B0F9"/>
				<stop  offset="1" style="stop-color:#7A99DD"/>
			</linearGradient>
			<path class="st16" d="M559,583.1l-1.1,5.2h-63.9l1.1-5.2c1.5-7.1,4.2-13.7,8.1-19.6s8.8-10.2,14.6-12.7
				c5.8-2.5,11.5-3.8,17.1-3.8s10.6,1.3,15.3,3.8c4.6,2.5,7.6,6.7,9,12.5C560.7,569.1,560.6,575.7,559,583.1z M599.8,522.8
				c-7.6-8.5-16.2-14.3-25.8-17.6c-9.6-3.3-19.4-5-29.5-5c-13.2,0-25.9,2.4-38,7.1s-22.8,11.2-31.9,19.4c-9.1,8.2-16.8,17.6-23,28.2
				c-6.2,10.6-10.5,21.4-12.9,32.5l-8.9,42c-3.7,17.5-3.1,32.8,1.7,46c4.9,13.2,13.5,23.5,25.8,30.7s28.4,10.9,48.3,10.9
				c16.4,0,34.5-2.5,54.1-8.3c6-1.8,10.5-4.9,13.6-9.1c3.1-4.2,4.6-9,4.4-14.3l-0.4-7.5c-0.5-11.4-7.5-15.6-21.1-12.7
				c-16.1,3.4-29.8,5.2-41.2,5.2c-13.8,0-22.9-3.5-27.3-10.5c-4.5-7-5.3-17.1-2.5-30.3l0.7-3.2h109.1c2.6,0,5.2-1,7.8-3.2
				c2.6-2.1,4.1-4.5,4.7-7.1l6.1-28.6c2.3-10.8,2.5-22.2,0.5-34.1C612.2,541.5,607.4,531.3,599.8,522.8z"/>
			
				<linearGradient id="SVGID_15_" gradientUnits="userSpaceOnUse" x1="242.5036" y1="693.0812" x2="667.7185" y2="298.6459" gradientTransform="matrix(1 0 0 -1 0 861.8898)">
				<stop  offset="1.715443e-03" style="stop-color:#91D1FF"/>
				<stop  offset="0.4647" style="stop-color:#84B0F9"/>
				<stop  offset="1" style="stop-color:#7A99DD"/>
			</linearGradient>
			<path class="st17" d="M778,588.7l37.7-57.9c3.5-5.3,4.5-9.9,3.2-13.9c-1.4-4-5.2-6-11.2-6H787c-7.1,0-12.6,1.4-16.4,4.2
				c-3.8,2.8-6.8,6-9.2,9.7l-26.9,42.4c-3.6,5.8-8.2,9.5-13.9,11.1l-16.9,4.8l28.6-134.5c1.2-5.5,0.4-10.1-2.5-13.7s-7-5.4-12.5-5.4
				H700c-5.5,0-10.5,1.8-14.8,5.4c-4.3,3.6-7.1,8.1-8.3,13.7l-53.1,249.9c-1.2,5.5-0.4,10.1,2.4,13.7c2.8,3.6,7,5.4,12.5,5.4h17.5
				c5.5,0,10.5-1.8,14.8-5.4s7.1-8.1,8.3-13.7l14.2-66.6l10-2.4l23.9,74.2c3.3,9.3,10.5,13.9,21.6,13.9h20.6
				c5.8,0,10.3-2.2,13.3-6.7c3.1-4.5,3.7-9.4,1.9-14.7l-30.2-83.7C763.5,607.2,771.3,599.3,778,588.7z"/>
		</g>
		<g>
			
				<linearGradient id="SVGID_16_" gradientUnits="userSpaceOnUse" x1="194.962" y1="633.2565" x2="620.1769" y2="238.8212" gradientTransform="matrix(1 0 0 -1 0 861.8898)">
				<stop  offset="1.715443e-03" style="stop-color:#8FD3FF"/>
				<stop  offset="0.4647" style="stop-color:#7FACF8"/>
				<stop  offset="1" style="stop-color:#7391D6"/>
			</linearGradient>
			<path class="st18" d="M699.6,336.1c0-28.5-14.2-60.2-44.3-69.8c-50.7,22.1-120.5,31.6-196.5,37.9
				c15.9-55.4,25.5-118.8,25.5-137.8C484.3,80.9,435.2,38,378.2,38c-26.9,0-52.3,7.9-65,23.7c0,60.2-12.8,172.7-28.7,253.5
				c-30.1,1.6-63.4,4.2-99.8,6.3c-112.6,6.3-153.7,52.2-153.8,99.7c0,7.9,1.9,18.4,6,27.3c3.8,8.5,12.1,14.1,21.4,14.6
				c48,2.9,127.1,5.7,192.8,5.8c-7.9,39.6-15.9,98.2-15.9,128.3c-0.1,72.9,30,112.5,76,112.6c22.2,0,42.8-6.3,50.7-14.2
				c11.1-47.5,46.1-160,62-228.1C629.8,454.9,699.6,412.2,699.6,336.1z"/>
			
				<linearGradient id="SVGID_17_" gradientUnits="userSpaceOnUse" x1="151.7046" y1="596.0875" x2="576.9294" y2="201.6431" gradientTransform="matrix(1 0 0 -1 0 861.8898)">
				<stop  offset="1.715443e-03" style="stop-color:#8FD3FF"/>
				<stop  offset="0.4647" style="stop-color:#7FACF8"/>
				<stop  offset="1" style="stop-color:#7391D6"/>
			</linearGradient>
			<path class="st19" d="M558.6,582.7l-1.1,5.2h-63.9l1.1-5.2c1.5-7.1,4.2-13.7,8.1-19.6s8.8-10.2,14.6-12.7
				c5.8-2.5,11.5-3.8,17.1-3.8s10.6,1.3,15.3,3.8c4.6,2.5,7.6,6.7,9,12.5C560.2,568.7,560.2,575.3,558.6,582.7z M599.4,522.4
				c-7.6-8.5-16.2-14.3-25.8-17.6c-9.6-3.3-19.4-5-29.5-5c-13.2,0-25.9,2.4-38,7.1s-22.8,11.2-31.9,19.4c-9.1,8.2-16.8,17.6-23,28.2
				c-6.2,10.6-10.5,21.4-12.9,32.5l-8.9,42c-3.7,17.5-3.1,32.8,1.7,46c4.9,13.2,13.5,23.5,25.8,30.7s28.4,10.9,48.3,10.9
				c16.4,0,34.5-2.5,54.1-8.3c6-1.8,10.5-4.9,13.6-9.1c3.1-4.2,4.6-9,4.4-14.3l-0.4-7.5c-0.5-11.4-7.5-15.6-21.1-12.7
				c-16.1,3.4-29.8,5.2-41.2,5.2c-13.8,0-22.9-3.5-27.3-10.5c-4.5-7-5.3-17.1-2.5-30.3l0.7-3.2h109.1c2.6,0,5.2-1,7.8-3.2
				c2.6-2.1,4.1-4.5,4.7-7.1l6.1-28.6c2.3-10.8,2.5-22.2,0.5-34.1C611.7,541.1,607,530.9,599.4,522.4z"/>
			
				<linearGradient id="SVGID_18_" gradientUnits="userSpaceOnUse" x1="242.0456" y1="693.464" x2="667.2605" y2="299.0287" gradientTransform="matrix(1 0 0 -1 0 861.8898)">
				<stop  offset="1.715443e-03" style="stop-color:#8FD3FF"/>
				<stop  offset="0.4647" style="stop-color:#7FACF8"/>
				<stop  offset="1" style="stop-color:#7391D6"/>
			</linearGradient>
			<path class="st20" d="M777.5,588.3l37.7-57.9c3.5-5.3,4.5-9.9,3.2-13.9c-1.4-4-5.2-6-11.2-6h-20.6c-7.1,0-12.6,1.4-16.4,4.2
				c-3.8,2.8-6.8,6-9.2,9.7l-26.9,42.4c-3.6,5.8-8.2,9.5-13.9,11.1l-16.9,4.8l28.6-134.5c1.2-5.5,0.4-10.1-2.5-13.7s-7-5.4-12.5-5.4
				h-17.4c-5.5,0-10.5,1.8-14.8,5.4c-4.3,3.6-7.1,8.1-8.3,13.7l-53.1,249.9c-1.2,5.5-0.4,10.1,2.4,13.7c2.8,3.6,7,5.4,12.5,5.4h17.5
				c5.5,0,10.5-1.8,14.8-5.4s7.1-8.1,8.3-13.7l14.2-66.6l10-2.4l23.9,74.2c3.3,9.3,10.5,13.9,21.6,13.9h20.6
				c5.8,0,10.3-2.2,13.3-6.7c3.1-4.5,3.7-9.4,1.9-14.7l-30.2-83.7C763,606.8,770.8,598.9,777.5,588.3z"/>
		</g>
		<g>
			
				<linearGradient id="SVGID_19_" gradientUnits="userSpaceOnUse" x1="194.1162" y1="633.7772" x2="619.3311" y2="239.342" gradientTransform="matrix(1 0 0 -1 0 861.8898)">
				<stop  offset="1.715443e-03" style="stop-color:#8DD6FF"/>
				<stop  offset="0.4647" style="stop-color:#7BA8F6"/>
				<stop  offset="1" style="stop-color:#6D88D0"/>
			</linearGradient>
			<path class="st21" d="M698.8,335.6c0-28.5-14.2-60.2-44.3-69.8C603.8,288,534,297.5,458,303.7c15.9-55.4,25.5-118.8,25.5-137.8
				c0.1-85.6-49-128.4-106.1-128.4c-26.9,0-52.3,7.9-65,23.7c0,60.2-12.8,172.7-28.7,253.5c-30.1,1.6-63.4,4.2-99.8,6.3
				C71.2,327.3,30.1,373.1,30,420.7c0,8,2,18.5,6.2,27.6c3.8,8.3,11.9,13.8,21.1,14.4c47.9,2.9,127.2,5.7,193,5.8
				c-7.9,39.6-15.9,98.2-15.9,128.3c-0.1,72.9,30,112.5,76,112.6c22.2,0,42.8-6.3,50.7-14.2c11.1-47.5,46.1-160,62-228.1
				C629,454.4,698.7,411.7,698.8,335.6z"/>
			
				<linearGradient id="SVGID_20_" gradientUnits="userSpaceOnUse" x1="151.2491" y1="596.4731" x2="576.4741" y2="202.0287" gradientTransform="matrix(1 0 0 -1 0 861.8898)">
				<stop  offset="1.715443e-03" style="stop-color:#8DD6FF"/>
				<stop  offset="0.4647" style="stop-color:#7BA8F6"/>
				<stop  offset="1" style="stop-color:#6D88D0"/>
			</linearGradient>
			<path class="st22" d="M558.1,582.3l-1.1,5.2h-63.9l1.1-5.2c1.5-7.1,4.2-13.7,8.1-19.6s8.8-10.2,14.6-12.7
				c5.8-2.5,11.5-3.8,17.1-3.8s10.6,1.3,15.3,3.8c4.6,2.5,7.6,6.7,9,12.5C559.8,568.3,559.7,574.9,558.1,582.3z M598.9,522
				c-7.6-8.5-16.2-14.3-25.8-17.6c-9.6-3.3-19.4-5-29.5-5c-13.2,0-25.9,2.4-38,7.1s-22.8,11.2-31.9,19.4c-9.1,8.2-16.8,17.6-23,28.2
				c-6.2,10.6-10.5,21.4-12.9,32.5l-8.9,42c-3.7,17.5-3.1,32.8,1.7,46c4.9,13.2,13.5,23.5,25.8,30.7s28.4,10.9,48.3,10.9
				c16.4,0,34.5-2.5,54.1-8.3c6-1.8,10.5-4.9,13.6-9.1c3.1-4.2,4.6-9,4.4-14.3l-0.4-7.5c-0.5-11.4-7.5-15.6-21.1-12.7
				c-16.1,3.4-29.8,5.2-41.2,5.2c-13.8,0-22.9-3.5-27.3-10.5c-4.5-7-5.3-17.1-2.5-30.3l0.7-3.2h109.1c2.6,0,5.2-1,7.8-3.2
				c2.6-2.1,4.1-4.5,4.7-7.1l6.1-28.6c2.3-10.8,2.5-22.2,0.5-34.1C611.3,540.7,606.5,530.5,598.9,522z"/>
			
				<linearGradient id="SVGID_21_" gradientUnits="userSpaceOnUse" x1="241.5926" y1="693.8522" x2="666.8075" y2="299.4168" gradientTransform="matrix(1 0 0 -1 0 861.8898)">
				<stop  offset="1.715443e-03" style="stop-color:#8DD6FF"/>
				<stop  offset="0.4647" style="stop-color:#7BA8F6"/>
				<stop  offset="1" style="stop-color:#6D88D0"/>
			</linearGradient>
			<path class="st23" d="M777.1,588l37.7-57.9c3.5-5.3,4.5-9.9,3.2-13.9c-1.4-4-5.2-6-11.2-6h-20.6c-7.1,0-12.6,1.4-16.4,4.2
				c-3.8,2.8-6.8,6-9.2,9.7l-26.9,42.4c-3.6,5.8-8.2,9.5-13.9,11.1l-16.9,4.8l28.6-134.5c1.2-5.5,0.4-10.1-2.5-13.7s-7-5.4-12.5-5.4
				H699c-5.5,0-10.5,1.8-14.8,5.4c-4.3,3.6-7.1,8.1-8.3,13.7l-53.1,249.9c-1.2,5.5-0.4,10.1,2.4,13.7c2.8,3.6,7,5.4,12.5,5.4h17.5
				c5.5,0,10.5-1.8,14.8-5.4s7.1-8.1,8.3-13.7l14.2-66.6l10-2.4l23.9,74.2c3.3,9.3,10.5,13.9,21.6,13.9h20.6
				c5.8,0,10.3-2.2,13.3-6.7c3.1-4.5,3.7-9.4,1.9-14.7l-30.2-83.7C762.6,606.5,770.3,598.5,777.1,588z"/>
		</g>
		<g>
			
				<linearGradient id="SVGID_22_" gradientUnits="userSpaceOnUse" x1="193.2656" y1="634.2928" x2="618.4806" y2="239.8574" gradientTransform="matrix(1 0 0 -1 0 861.8898)">
				<stop  offset="1.715443e-03" style="stop-color:#8BD9FF"/>
				<stop  offset="0.4647" style="stop-color:#76A4F5"/>
				<stop  offset="1" style="stop-color:#6680C9"/>
			</linearGradient>
			<path class="st24" d="M697.9,335.1c0-28.5-14.2-60.2-44.3-69.8c-50.7,22.1-120.5,31.6-196.5,37.9
				c15.9-55.4,25.5-118.8,25.5-137.8c0.1-85.6-49-128.4-106.1-128.4c-26.9,0-52.3,7.9-65,23.7c0,60.2-12.8,172.7-28.7,253.5
				c-30.1,1.6-63.4,4.2-99.8,6.3c-112.6,6.3-153.7,52.2-153.8,99.7c0,8.1,2,18.8,6.3,27.9c3.8,8.1,11.8,13.5,20.8,14.1
				c47.9,3,127.3,5.7,193.2,5.8c-7.9,39.6-15.9,98.2-15.9,128.3c-0.1,72.9,30,112.5,76,112.6c22.2,0,42.8-6.3,50.7-14.2
				c11.1-47.5,46.1-160,62-228.1C628.1,453.9,697.9,411.2,697.9,335.1z"/>
			
				<linearGradient id="SVGID_23_" gradientUnits="userSpaceOnUse" x1="150.7985" y1="596.8638" x2="576.0234" y2="202.4193" gradientTransform="matrix(1 0 0 -1 0 861.8898)">
				<stop  offset="1.715443e-03" style="stop-color:#8BD9FF"/>
				<stop  offset="0.4647" style="stop-color:#76A4F5"/>
				<stop  offset="1" style="stop-color:#6680C9"/>
			</linearGradient>
			<path class="st25" d="M557.7,582l-1.1,5.2h-63.9l1.1-5.2c1.5-7.1,4.2-13.7,8.1-19.6s8.8-10.2,14.6-12.7
				c5.8-2.5,11.5-3.8,17.1-3.8s10.6,1.3,15.3,3.8c4.6,2.5,7.6,6.7,9,12.5C559.3,567.9,559.3,574.6,557.7,582z M598.5,521.7
				c-7.6-8.5-16.2-14.3-25.8-17.6c-9.6-3.3-19.4-5-29.5-5c-13.2,0-25.9,2.4-38,7.1s-22.8,11.2-31.9,19.4c-9.1,8.2-16.8,17.6-23,28.2
				c-6.2,10.6-10.5,21.4-12.9,32.5l-8.9,42c-3.7,17.5-3.1,32.8,1.7,46c4.9,13.2,13.5,23.5,25.8,30.7s28.4,10.9,48.3,10.9
				c16.4,0,34.5-2.5,54.1-8.3c6-1.8,10.5-4.9,13.6-9.1c3.1-4.2,4.6-9,4.4-14.3l-0.4-7.5c-0.5-11.4-7.5-15.6-21.1-12.7
				c-16.1,3.4-29.8,5.2-41.2,5.2c-13.8,0-22.9-3.5-27.3-10.5c-4.5-7-5.3-17.1-2.5-30.3l0.7-3.2h109.1c2.6,0,5.2-1,7.8-3.2
				c2.6-2.1,4.1-4.5,4.7-7.1l6.1-28.6c2.3-10.8,2.5-22.2,0.5-34.1C610.8,540.3,606,530.1,598.5,521.7z"/>
			
				<linearGradient id="SVGID_24_" gradientUnits="userSpaceOnUse" x1="241.1441" y1="694.2454" x2="666.359" y2="299.8101" gradientTransform="matrix(1 0 0 -1 0 861.8898)">
				<stop  offset="1.715443e-03" style="stop-color:#8BD9FF"/>
				<stop  offset="0.4647" style="stop-color:#76A4F5"/>
				<stop  offset="1" style="stop-color:#6680C9"/>
			</linearGradient>
			<path class="st26" d="M776.7,587.6l37.7-57.9c3.5-5.3,4.5-9.9,3.2-13.9c-1.4-4-5.2-6-11.2-6h-20.6c-7.1,0-12.6,1.4-16.4,4.2
				c-3.8,2.8-6.8,6-9.2,9.7l-26.9,42.4c-3.6,5.8-8.2,9.5-13.9,11.1l-16.9,4.8L731,447.5c1.2-5.5,0.4-10.1-2.5-13.7s-7-5.4-12.5-5.4
				h-17.4c-5.5,0-10.5,1.8-14.8,5.4c-4.3,3.6-7.1,8.1-8.3,13.7l-53.1,249.9c-1.2,5.5-0.4,10.1,2.4,13.7c2.8,3.6,7,5.4,12.5,5.4h17.5
				c5.5,0,10.5-1.8,14.8-5.4s7.1-8.1,8.3-13.7l14.2-66.6l10-2.4l23.9,74.2c3.3,9.3,10.5,13.9,21.6,13.9h20.6
				c5.8,0,10.3-2.2,13.3-6.7c3.1-4.5,3.7-9.4,1.9-14.7l-30.2-83.7C762.1,606.1,769.9,598.1,776.7,587.6z"/>
		</g>
		<g>
			
				<linearGradient id="SVGID_25_" gradientUnits="userSpaceOnUse" x1="192.4128" y1="634.8058" x2="617.6277" y2="240.3704" gradientTransform="matrix(1 0 0 -1 0 861.8898)">
				<stop  offset="1.715443e-03" style="stop-color:#89DBFF"/>
				<stop  offset="0.4647" style="stop-color:#71A0F4"/>
				<stop  offset="1" style="stop-color:#5F77C2"/>
			</linearGradient>
			<path class="st27" d="M697.1,334.6c0-28.5-14.2-60.2-44.3-69.8c-50.7,22.1-120.5,31.6-196.5,37.9
				c15.9-55.4,25.5-118.8,25.5-137.8c0.1-85.6-49-128.4-106.1-128.4c-26.9,0-52.3,7.9-65,23.7c0,60.2-12.8,172.7-28.7,253.5
				c-30.1,1.6-63.4,4.2-99.8,6.3c-112.6,6.3-153.7,52.2-153.8,99.7c0,8.2,2.1,19,6.4,28.1c3.8,8,11.6,13.3,20.4,13.8
				c47.9,3,127.4,5.7,193.4,5.8c-7.9,39.6-15.9,98.2-15.9,128.3c-0.1,72.9,30,112.5,76,112.6c22.2,0,42.8-6.3,50.7-14.2
				c11.1-47.5,46.1-160,62-228.1C627.3,453.4,697,410.7,697.1,334.6z"/>
			
				<linearGradient id="SVGID_26_" gradientUnits="userSpaceOnUse" x1="150.3428" y1="597.2491" x2="575.5677" y2="202.8046" gradientTransform="matrix(1 0 0 -1 0 861.8898)">
				<stop  offset="1.715443e-03" style="stop-color:#89DBFF"/>
				<stop  offset="0.4647" style="stop-color:#71A0F4"/>
				<stop  offset="1" style="stop-color:#5F77C2"/>
			</linearGradient>
			<path class="st28" d="M557.2,581.6l-1.1,5.2h-63.9l1.1-5.2c1.5-7.1,4.2-13.7,8.1-19.6s8.8-10.2,14.6-12.7
				c5.8-2.5,11.5-3.8,17.1-3.8s10.6,1.3,15.3,3.8c4.6,2.5,7.6,6.7,9,12.5C558.9,567.5,558.8,574.2,557.2,581.6z M598,521.3
				c-7.6-8.5-16.2-14.3-25.8-17.6c-9.6-3.3-19.4-5-29.5-5c-13.2,0-25.9,2.4-38,7.1s-22.8,11.2-31.9,19.4c-9.1,8.2-16.8,17.6-23,28.2
				c-6.2,10.6-10.5,21.4-12.9,32.5l-8.9,42c-3.7,17.5-3.1,32.8,1.7,46c4.9,13.2,13.5,23.5,25.8,30.7s28.4,10.9,48.3,10.9
				c16.4,0,34.5-2.5,54.1-8.3c6-1.8,10.5-4.9,13.6-9.1c3.1-4.2,4.6-9,4.4-14.3l-0.4-7.5c-0.5-11.4-7.5-15.6-21.1-12.7
				c-16.1,3.4-29.8,5.2-41.2,5.2c-13.8,0-22.9-3.5-27.3-10.5c-4.5-7-5.3-17.1-2.5-30.3l0.7-3.2h109.1c2.6,0,5.2-1,7.8-3.2
				c2.6-2.1,4.1-4.5,4.7-7.1l6.1-28.6c2.3-10.8,2.5-22.2,0.5-34.1C610.4,539.9,605.6,529.7,598,521.3z"/>
			
				<linearGradient id="SVGID_27_" gradientUnits="userSpaceOnUse" x1="240.6911" y1="694.6335" x2="665.906" y2="300.1983" gradientTransform="matrix(1 0 0 -1 0 861.8898)">
				<stop  offset="1.715443e-03" style="stop-color:#89DBFF"/>
				<stop  offset="0.4647" style="stop-color:#71A0F4"/>
				<stop  offset="1" style="stop-color:#5F77C2"/>
			</linearGradient>
			<path class="st29" d="M776.2,587.2l37.7-57.9c3.5-5.3,4.5-9.9,3.2-13.9c-1.4-4-5.2-6-11.2-6h-20.6c-7.1,0-12.6,1.4-16.4,4.2
				c-3.8,2.8-6.8,6-9.2,9.7l-26.9,42.4c-3.6,5.8-8.2,9.5-13.9,11.1l-16.9,4.8l28.6-134.5c1.2-5.5,0.4-10.1-2.5-13.7s-7-5.4-12.5-5.4
				h-17.5c-5.5,0-10.5,1.8-14.8,5.4c-4.3,3.6-7.1,8.1-8.3,13.7L621.9,697c-1.2,5.5-0.4,10.1,2.4,13.7c2.8,3.6,7,5.4,12.5,5.4h17.5
				c5.5,0,10.5-1.8,14.8-5.4s7.1-8.1,8.3-13.7l14.2-66.6l10-2.4l23.9,74.2c3.3,9.3,10.5,13.9,21.6,13.9h20.6
				c5.8,0,10.3-2.2,13.3-6.7c3.1-4.5,3.7-9.4,1.9-14.7L752.9,611C761.7,605.7,769.5,597.8,776.2,587.2z"/>
		</g>
		<g>
			
				<linearGradient id="SVGID_28_" gradientUnits="userSpaceOnUse" x1="191.5646" y1="635.3237" x2="616.7795" y2="240.8884" gradientTransform="matrix(1 0 0 -1 0 861.8898)">
				<stop  offset="1.715443e-03" style="stop-color:#87DEFF"/>
				<stop  offset="0.4647" style="stop-color:#6C9CF3"/>
				<stop  offset="1" style="stop-color:#586FBB"/>
			</linearGradient>
			<path class="st30" d="M696.2,334.1c0-28.5-14.2-60.2-44.3-69.8c-50.7,22.1-120.5,31.6-196.5,37.9
				c15.9-55.4,25.5-118.8,25.5-137.8c0.1-85.6-49-128.4-106.1-128.4c-26.9,0-52.3,7.9-65,23.7c0,60.2-12.8,172.7-28.7,253.5
				c-30.1,1.6-63.4,4.2-99.8,6.3c-112.6,6.3-153.7,52.2-153.8,99.7c0,8.2,2.1,19.2,6.5,28.4c3.8,7.8,11.5,13,20.1,13.5
				c47.9,3,127.5,5.7,193.6,5.8c-7.9,39.6-15.9,98.2-15.9,128.3c-0.1,72.9,30,112.5,76,112.6c22.2,0,42.8-6.3,50.7-14.2
				c11.1-47.5,46.1-160,62-228.1C626.4,452.9,696.2,410.1,696.2,334.1z"/>
			
				<linearGradient id="SVGID_29_" gradientUnits="userSpaceOnUse" x1="149.8874" y1="597.6348" x2="575.1123" y2="203.1903" gradientTransform="matrix(1 0 0 -1 0 861.8898)">
				<stop  offset="1.715443e-03" style="stop-color:#87DEFF"/>
				<stop  offset="0.4647" style="stop-color:#6C9CF3"/>
				<stop  offset="1" style="stop-color:#586FBB"/>
			</linearGradient>
			<path class="st31" d="M556.8,581.2l-1.1,5.2h-63.9l1.1-5.2c1.5-7.1,4.2-13.7,8.1-19.6s8.8-10.2,14.6-12.7
				c5.8-2.5,11.5-3.8,17.1-3.8s10.6,1.3,15.3,3.8c4.6,2.5,7.6,6.7,9,12.5C558.4,567.2,558.4,573.8,556.8,581.2z M597.6,520.9
				c-7.6-8.5-16.2-14.3-25.8-17.6c-9.6-3.3-19.4-5-29.5-5c-13.2,0-25.9,2.4-38,7.1s-22.8,11.2-31.9,19.4c-9.1,8.2-16.8,17.6-23,28.2
				c-6.2,10.6-10.5,21.4-12.9,32.5l-8.9,42c-3.7,17.5-3.1,32.8,1.7,46c4.9,13.2,13.5,23.5,25.8,30.7s28.4,10.9,48.3,10.9
				c16.4,0,34.5-2.5,54.1-8.3c6-1.8,10.5-4.9,13.6-9.1c3.1-4.2,4.6-9,4.4-14.3l-0.4-7.5c-0.5-11.4-7.5-15.6-21.1-12.7
				c-16.1,3.4-29.8,5.2-41.2,5.2c-13.8,0-22.9-3.5-27.3-10.5c-4.5-7-5.3-17.1-2.5-30.3l0.7-3.2h109.1c2.6,0,5.2-1,7.8-3.2
				c2.6-2.1,4.1-4.5,4.7-7.1l6.1-28.6c2.3-10.8,2.5-22.2,0.5-34.1C609.9,539.5,605.2,529.3,597.6,520.9z"/>
			
				<linearGradient id="SVGID_30_" gradientUnits="userSpaceOnUse" x1="240.2357" y1="695.0192" x2="665.4506" y2="300.5839" gradientTransform="matrix(1 0 0 -1 0 861.8898)">
				<stop  offset="1.715443e-03" style="stop-color:#87DEFF"/>
				<stop  offset="0.4647" style="stop-color:#6C9CF3"/>
				<stop  offset="1" style="stop-color:#586FBB"/>
			</linearGradient>
			<path class="st32" d="M775.7,586.8l37.7-57.9c3.5-5.3,4.5-9.9,3.2-13.9c-1.4-4-5.2-6-11.2-6h-20.6c-7.1,0-12.6,1.4-16.4,4.2
				c-3.8,2.8-6.8,6-9.2,9.7l-26.9,42.4c-3.6,5.8-8.2,9.5-13.9,11.1l-16.9,4.8l28.6-134.5c1.2-5.5,0.4-10.1-2.5-13.7s-7-5.4-12.5-5.4
				h-17.5c-5.5,0-10.5,1.8-14.8,5.4c-4.3,3.6-7.1,8.1-8.3,13.7l-53.1,249.9c-1.2,5.5-0.4,10.1,2.4,13.7c2.8,3.6,7,5.4,12.5,5.4h17.5
				c5.5,0,10.5-1.8,14.8-5.4s7.1-8.1,8.3-13.7l14.2-66.6l10-2.4l23.9,74.2c3.3,9.3,10.5,13.9,21.6,13.9h20.6
				c5.8,0,10.3-2.2,13.3-6.7c3.1-4.5,3.7-9.4,1.9-14.7l-30.2-83.7C761.2,605.3,769,597.4,775.7,586.8z"/>
		</g>
		<g>
			
				<linearGradient id="SVGID_31_" gradientUnits="userSpaceOnUse" x1="190.7164" y1="635.842" x2="615.9315" y2="241.4067" gradientTransform="matrix(1 0 0 -1 0 861.8898)">
				<stop  offset="1.715443e-03" style="stop-color:#85E0FF"/>
				<stop  offset="0.4647" style="stop-color:#6798F2"/>
				<stop  offset="1" style="stop-color:#5166B4"/>
			</linearGradient>
			<path class="st33" d="M695.4,333.6c0-28.5-14.2-60.2-44.3-69.8c-50.7,22.1-120.5,31.6-196.5,37.9
				c15.9-55.4,25.5-118.8,25.5-137.8C480.1,78.3,431,35.4,374,35.4c-26.9,0-52.3,7.9-65,23.7c0,60.2-12.8,172.7-28.7,253.5
				c-30.1,1.6-63.4,4.2-99.8,6.3c-112.6,6.3-153.7,52.2-153.8,99.7c0,8.3,2.1,19.4,6.7,28.6c3.7,7.6,11.3,12.7,19.8,13.3
				c47.9,3,127.6,5.8,193.7,5.8c-7.9,39.6-15.9,98.2-15.9,128.3c-0.1,72.9,30,112.5,76,112.6c22.2,0,42.8-6.3,50.7-14.2
				c11.1-47.5,46.1-160,62-228.1C625.6,452.4,695.3,409.6,695.4,333.6z"/>
			
				<linearGradient id="SVGID_32_" gradientUnits="userSpaceOnUse" x1="149.4367" y1="598.0255" x2="574.6615" y2="203.581" gradientTransform="matrix(1 0 0 -1 0 861.8898)">
				<stop  offset="1.715443e-03" style="stop-color:#85E0FF"/>
				<stop  offset="0.4647" style="stop-color:#6798F2"/>
				<stop  offset="1" style="stop-color:#5166B4"/>
			</linearGradient>
			<path class="st34" d="M556.3,580.8l-1.1,5.2h-63.9l1.1-5.2c1.5-7.1,4.2-13.7,8.1-19.6s8.8-10.2,14.6-12.7
				c5.8-2.5,11.5-3.8,17.1-3.8s10.6,1.3,15.3,3.8c4.6,2.5,7.6,6.7,9,12.5C558,566.8,557.9,573.4,556.3,580.8z M597.1,520.5
				c-7.6-8.5-16.2-14.3-25.8-17.6c-9.6-3.3-19.4-5-29.5-5c-13.2,0-25.9,2.4-38,7.1s-22.8,11.2-31.9,19.4c-9.1,8.2-16.8,17.6-23,28.2
				c-6.2,10.6-10.5,21.4-12.9,32.5l-8.9,42c-3.7,17.5-3.1,32.8,1.7,46c4.9,13.2,13.5,23.5,25.8,30.7s28.4,10.9,48.3,10.9
				c16.4,0,34.5-2.5,54.1-8.3c6-1.8,10.5-4.9,13.6-9.1c3.1-4.2,4.6-9,4.4-14.3l-0.4-7.5c-0.5-11.4-7.5-15.6-21.1-12.7
				c-16.1,3.4-29.8,5.2-41.2,5.2c-13.8,0-22.9-3.5-27.3-10.5c-4.5-7-5.3-17.1-2.5-30.3l0.7-3.2h109.1c2.6,0,5.2-1,7.8-3.2
				c2.6-2.1,4.1-4.5,4.7-7.1l6.1-28.6c2.3-10.8,2.5-22.2,0.5-34.1C609.5,539.1,604.7,529,597.1,520.5z"/>
			
				<linearGradient id="SVGID_33_" gradientUnits="userSpaceOnUse" x1="239.785" y1="695.4099" x2="664.9999" y2="300.9746" gradientTransform="matrix(1 0 0 -1 0 861.8898)">
				<stop  offset="1.715443e-03" style="stop-color:#85E0FF"/>
				<stop  offset="0.4647" style="stop-color:#6798F2"/>
				<stop  offset="1" style="stop-color:#5166B4"/>
			</linearGradient>
			<path class="st35" d="M775.3,586.4l37.7-57.9c3.5-5.3,4.5-9.9,3.2-13.9c-1.4-4-5.2-6-11.2-6h-20.6c-7.1,0-12.6,1.4-16.4,4.2
				c-3.8,2.8-6.8,6-9.2,9.7L731.8,565c-3.6,5.8-8.2,9.5-13.9,11.1l-16.9,4.8l28.6-134.5c1.2-5.5,0.4-10.1-2.5-13.7s-7-5.4-12.5-5.4
				h-17.5c-5.5,0-10.5,1.8-14.8,5.4c-4.3,3.6-7.1,8.1-8.3,13.7L621,696.3c-1.2,5.5-0.4,10.1,2.4,13.7c2.8,3.6,7,5.4,12.5,5.4h17.5
				c5.5,0,10.5-1.8,14.8-5.4s7.1-8.1,8.3-13.7l14.2-66.6l10-2.4l23.9,74.2c3.3,9.3,10.5,13.9,21.6,13.9h20.6
				c5.8,0,10.3-2.2,13.3-6.7c3.1-4.5,3.7-9.4,1.9-14.7L752,610.2C760.8,604.9,768.5,597,775.3,586.4z"/>
		</g>
		<g>
			
				<linearGradient id="SVGID_34_" gradientUnits="userSpaceOnUse" x1="189.8661" y1="636.3576" x2="615.081" y2="241.9225" gradientTransform="matrix(1 0 0 -1 0 861.8898)">
				<stop  offset="1.715443e-03" style="stop-color:#82E3FF"/>
				<stop  offset="0.4647" style="stop-color:#6395F0"/>
				<stop  offset="1" style="stop-color:#4B5EAE"/>
			</linearGradient>
			<path class="st36" d="M694.5,333c0-28.5-14.2-60.2-44.3-69.8c-50.7,22.1-120.5,31.6-196.5,37.9c15.9-55.4,25.5-118.8,25.5-137.8
				c0.1-85.6-49-128.4-106.1-128.4c-26.9,0-52.3,7.9-65,23.7c0,60.2-12.8,172.7-28.7,253.5c-30.1,1.6-63.4,4.2-99.8,6.3
				C67,324.7,25.8,370.5,25.8,418.1c0,8.4,2.2,19.6,6.8,28.9c3.7,7.5,11.1,12.5,19.5,13c47.8,3,127.7,5.8,193.9,5.8
				C238,505.4,230.1,564,230,594.1c-0.1,72.9,30,112.5,76,112.6c22.2,0,42.8-6.3,50.7-14.2c11.1-47.5,46.1-160,62-228.1
				C624.7,451.8,694.5,409.1,694.5,333z"/>
			
				<linearGradient id="SVGID_35_" gradientUnits="userSpaceOnUse" x1="148.9859" y1="598.4161" x2="574.2109" y2="203.9716" gradientTransform="matrix(1 0 0 -1 0 861.8898)">
				<stop  offset="1.715443e-03" style="stop-color:#82E3FF"/>
				<stop  offset="0.4647" style="stop-color:#6395F0"/>
				<stop  offset="1" style="stop-color:#4B5EAE"/>
			</linearGradient>
			<path class="st37" d="M555.9,580.4l-1.1,5.2h-63.9l1.1-5.2c1.5-7.1,4.2-13.7,8.1-19.6s8.8-10.2,14.6-12.7
				c5.8-2.5,11.5-3.8,17.1-3.8s10.6,1.3,15.3,3.8c4.6,2.5,7.6,6.7,9,12.5C557.5,566.4,557.5,573,555.9,580.4z M596.7,520.1
				c-7.6-8.5-16.2-14.3-25.8-17.6c-9.6-3.3-19.4-5-29.5-5c-13.2,0-25.9,2.4-38,7.1s-22.8,11.2-31.9,19.4c-9.1,8.2-16.8,17.6-23,28.2
				c-6.2,10.6-10.5,21.4-12.9,32.5l-8.9,42c-3.7,17.5-3.1,32.8,1.7,46c4.9,13.2,13.5,23.5,25.8,30.7s28.4,10.9,48.3,10.9
				c16.4,0,34.5-2.5,54.1-8.3c6-1.8,10.5-4.9,13.6-9.1c3.1-4.2,4.6-9,4.4-14.3l-0.4-7.5c-0.5-11.4-7.5-15.6-21.1-12.7
				c-16.1,3.4-29.8,5.2-41.2,5.2c-13.8,0-22.9-3.5-27.3-10.5c-4.5-7-5.3-17.1-2.5-30.3l0.7-3.2h109.1c2.6,0,5.2-1,7.8-3.2
				c2.6-2.1,4.1-4.5,4.7-7.1l6.1-28.6c2.3-10.8,2.5-22.2,0.5-34.1C609,538.8,604.2,528.6,596.7,520.1z"/>
			
				<linearGradient id="SVGID_36_" gradientUnits="userSpaceOnUse" x1="239.3294" y1="695.7953" x2="664.5442" y2="301.36" gradientTransform="matrix(1 0 0 -1 0 861.8898)">
				<stop  offset="1.715443e-03" style="stop-color:#82E3FF"/>
				<stop  offset="0.4647" style="stop-color:#6395F0"/>
				<stop  offset="1" style="stop-color:#4B5EAE"/>
			</linearGradient>
			<path class="st38" d="M774.8,586l37.7-57.9c3.5-5.3,4.5-9.9,3.2-13.9c-1.4-4-5.2-6-11.2-6h-20.6c-7.1,0-12.6,1.4-16.4,4.2
				c-3.8,2.8-6.8,6-9.2,9.7l-26.9,42.4c-3.6,5.8-8.2,9.5-13.9,11.1l-16.9,4.8L729.2,446c1.2-5.5,0.4-10.1-2.5-13.7s-7-5.4-12.5-5.4
				h-17.5c-5.5,0-10.5,1.8-14.8,5.4c-4.3,3.6-7.1,8.1-8.3,13.7l-53.1,249.9c-1.2,5.5-0.4,10.1,2.4,13.7c2.8,3.6,7,5.4,12.5,5.4H653
				c5.5,0,10.5-1.8,14.8-5.4s7.1-8.1,8.3-13.7l14.2-66.6l10-2.4l23.9,74.2c3.3,9.3,10.5,13.9,21.6,13.9h20.6
				c5.8,0,10.3-2.2,13.3-6.7c3.1-4.5,3.7-9.4,1.9-14.7l-30.2-83.7C760.3,604.5,768.1,596.6,774.8,586z"/>
		</g>
		<g>
			
				<linearGradient id="SVGID_37_" gradientUnits="userSpaceOnUse" x1="189.0129" y1="636.8702" x2="614.2279" y2="242.435" gradientTransform="matrix(1 0 0 -1 0 861.8898)">
				<stop  offset="1.715443e-03" style="stop-color:#80E5FF"/>
				<stop  offset="0.4647" style="stop-color:#5E91EF"/>
				<stop  offset="1" style="stop-color:#4455A7"/>
			</linearGradient>
			<path class="st39" d="M693.7,332.5c0-28.5-14.2-60.2-44.3-69.8c-50.7,22.1-120.5,31.6-196.5,37.9
				c15.9-55.4,25.5-118.8,25.5-137.8c0.1-85.6-49-128.4-106.1-128.4c-26.9,0-52.3,7.9-65,23.7c0,60.2-12.8,172.7-28.7,253.5
				c-30.1,1.6-63.4,4.2-99.8,6.3C66.1,324.2,25,370,24.9,417.6c0,8.5,2.2,19.8,6.9,29.2c3.7,7.3,11,12.2,19.2,12.7
				c47.8,3,127.8,5.8,194.1,5.8c-7.9,39.6-15.9,98.2-15.9,128.3c-0.1,72.9,30,112.5,76,112.6c22.2,0,42.8-6.3,50.7-14.2
				c11.1-47.5,46.1-160,62-228.1C623.9,451.3,693.6,408.6,693.7,332.5z"/>
			
				<linearGradient id="SVGID_38_" gradientUnits="userSpaceOnUse" x1="148.5306" y1="598.8019" x2="573.7555" y2="204.3574" gradientTransform="matrix(1 0 0 -1 0 861.8898)">
				<stop  offset="1.715443e-03" style="stop-color:#80E5FF"/>
				<stop  offset="0.4647" style="stop-color:#5E91EF"/>
				<stop  offset="1" style="stop-color:#4455A7"/>
			</linearGradient>
			<path class="st40" d="M555.4,580l-1.1,5.2h-63.9l1.1-5.2c1.5-7.1,4.2-13.7,8.1-19.6s8.8-10.2,14.6-12.7
				c5.8-2.5,11.5-3.8,17.1-3.8s10.6,1.3,15.3,3.8c4.6,2.5,7.6,6.7,9,12.5C557.1,566,557,572.6,555.4,580z M596.2,519.7
				c-7.6-8.5-16.2-14.3-25.8-17.6c-9.6-3.3-19.4-5-29.5-5c-13.2,0-25.9,2.4-38,7.1s-22.8,11.2-31.9,19.4c-9.1,8.2-16.8,17.6-23,28.2
				c-6.2,10.6-10.5,21.4-12.9,32.5l-8.9,42c-3.7,17.5-3.1,32.8,1.7,46c4.9,13.2,13.5,23.5,25.8,30.7s28.4,10.9,48.3,10.9
				c16.4,0,34.5-2.5,54.1-8.3c6-1.8,10.5-4.9,13.6-9.1c3.1-4.2,4.6-9,4.4-14.3l-0.4-7.5c-0.5-11.4-7.5-15.6-21.1-12.7
				c-16.1,3.4-29.8,5.2-41.2,5.2c-13.8,0-22.9-3.5-27.3-10.5c-4.5-7-5.3-17.1-2.5-30.3l0.7-3.2h109.1c2.6,0,5.2-1,7.8-3.2
				c2.6-2.1,4.1-4.5,4.7-7.1l6.1-28.6c2.3-10.8,2.5-22.2,0.5-34.1C608.6,538.4,603.8,528.2,596.2,519.7z"/>
			
				<linearGradient id="SVGID_39_" gradientUnits="userSpaceOnUse" x1="238.874" y1="696.1809" x2="664.0889" y2="301.7456" gradientTransform="matrix(1 0 0 -1 0 861.8898)">
				<stop  offset="1.715443e-03" style="stop-color:#80E5FF"/>
				<stop  offset="0.4647" style="stop-color:#5E91EF"/>
				<stop  offset="1" style="stop-color:#4455A7"/>
			</linearGradient>
			<path class="st41" d="M774.4,585.6l37.7-57.9c3.5-5.3,4.5-9.9,3.2-13.9c-1.4-4-5.2-6-11.2-6h-20.6c-7.1,0-12.6,1.4-16.4,4.2
				c-3.8,2.8-6.8,6-9.2,9.7l-26.9,42.4c-3.6,5.8-8.2,9.5-13.9,11.1l-16.9,4.8l28.6-134.5c1.2-5.5,0.4-10.1-2.5-13.7s-7-5.4-12.5-5.4
				h-17.5c-5.5,0-10.5,1.8-14.8,5.4c-4.3,3.6-7.1,8.1-8.3,13.7l-53.1,249.9c-1.2,5.5-0.4,10.1,2.4,13.7c2.8,3.6,7,5.4,12.5,5.4h17.5
				c5.5,0,10.5-1.8,14.8-5.4s7.1-8.1,8.3-13.7l14.2-66.6l10-2.4l23.9,74.2c3.3,9.3,10.5,13.9,21.6,13.9H766c5.8,0,10.3-2.2,13.3-6.7
				c3.1-4.5,3.7-9.4,1.9-14.7l-30.2-83.7C759.9,604.1,767.6,596.2,774.4,585.6z"/>
		</g>
		<g>
			
				<linearGradient id="SVGID_40_" gradientUnits="userSpaceOnUse" x1="188.1649" y1="637.3885" x2="613.3798" y2="242.9532" gradientTransform="matrix(1 0 0 -1 0 861.8898)">
				<stop  offset="1.715443e-03" style="stop-color:#7EE8FF"/>
				<stop  offset="0.4647" style="stop-color:#598DEE"/>
				<stop  offset="1" style="stop-color:#3D4DA0"/>
			</linearGradient>
			<path class="st42" d="M692.8,332c0-28.5-14.2-60.2-44.3-69.8c-50.7,22.1-120.5,31.6-196.5,37.9c15.9-55.4,25.5-118.8,25.5-137.8
				c0.1-85.6-49-128.4-106.1-128.4c-26.9,0-52.3,7.9-65,23.7c0,60.2-12.8,172.7-28.7,253.5c-30.1,1.6-63.4,4.2-99.8,6.3
				C65.3,323.7,24.1,369.5,24.1,417c0,8.6,2.3,20,7.1,29.5c3.7,7.2,10.8,11.9,18.8,12.4c47.8,3,127.9,5.8,194.3,5.8
				c-7.9,39.6-15.9,98.2-15.9,128.3c-0.1,72.9,30,112.5,76,112.6c22.2,0,42.8-6.3,50.7-14.2c11.1-47.5,46.1-160,62-228.1
				C623,450.8,692.8,408.1,692.8,332z"/>
			
				<linearGradient id="SVGID_41_" gradientUnits="userSpaceOnUse" x1="148.0799" y1="599.1925" x2="573.3047" y2="204.748" gradientTransform="matrix(1 0 0 -1 0 861.8898)">
				<stop  offset="1.715443e-03" style="stop-color:#7EE8FF"/>
				<stop  offset="0.4647" style="stop-color:#598DEE"/>
				<stop  offset="1" style="stop-color:#3D4DA0"/>
			</linearGradient>
			<path class="st43" d="M555,579.6l-1.1,5.2H490l1.1-5.2c1.5-7.1,4.2-13.7,8.1-19.6s8.8-10.2,14.6-12.7c5.8-2.5,11.5-3.8,17.1-3.8
				s10.6,1.3,15.3,3.8c4.6,2.5,7.6,6.7,9,12.5C556.6,565.6,556.5,572.2,555,579.6z M595.8,519.3c-7.6-8.5-16.2-14.3-25.8-17.6
				c-9.6-3.3-19.4-5-29.5-5c-13.2,0-25.9,2.4-38,7.1s-22.8,11.2-31.9,19.4c-9.1,8.2-16.8,17.6-23,28.2
				c-6.2,10.6-10.5,21.4-12.9,32.5l-8.9,42c-3.7,17.5-3.1,32.8,1.7,46c4.9,13.2,13.5,23.5,25.8,30.7s28.4,10.9,48.3,10.9
				c16.4,0,34.5-2.5,54.1-8.3c6-1.8,10.5-4.9,13.6-9.1c3.1-4.2,4.6-9,4.4-14.3l-0.4-7.5c-0.5-11.4-7.5-15.6-21.1-12.7
				c-16.1,3.4-29.8,5.2-41.2,5.2c-13.8,0-22.9-3.5-27.3-10.5c-4.5-7-5.3-17.1-2.5-30.3l0.7-3.2H591c2.6,0,5.2-1,7.8-3.2
				c2.6-2.1,4.1-4.5,4.7-7.1l6.1-28.6c2.3-10.8,2.5-22.2,0.5-34.1C608.1,538,603.3,527.8,595.8,519.3z"/>
			
				<linearGradient id="SVGID_42_" gradientUnits="userSpaceOnUse" x1="238.4232" y1="696.5715" x2="663.6381" y2="302.1363" gradientTransform="matrix(1 0 0 -1 0 861.8898)">
				<stop  offset="1.715443e-03" style="stop-color:#7EE8FF"/>
				<stop  offset="0.4647" style="stop-color:#598DEE"/>
				<stop  offset="1" style="stop-color:#3D4DA0"/>
			</linearGradient>
			<path class="st44" d="M773.9,585.2l37.7-57.9c3.5-5.3,4.5-9.9,3.2-13.9c-1.4-4-5.2-6-11.2-6h-20.6c-7.1,0-12.6,1.4-16.4,4.2
				c-3.8,2.8-6.8,6-9.2,9.7l-26.9,42.4c-3.6,5.8-8.2,9.5-13.9,11.1l-16.9,4.8l28.6-134.5c1.2-5.5,0.4-10.1-2.5-13.7s-7-5.4-12.5-5.4
				h-17.5c-5.5,0-10.5,1.8-14.8,5.4c-4.3,3.6-7.1,8.1-8.3,13.7l-53.1,249.9c-1.2,5.5-0.4,10.1,2.4,13.7c2.8,3.6,7,5.4,12.5,5.4h17.5
				c5.5,0,10.5-1.8,14.8-5.4s7.1-8.1,8.3-13.7l14.2-66.6l10-2.4l23.9,74.2c3.3,9.3,10.5,13.9,21.6,13.9h20.6
				c5.8,0,10.3-2.2,13.3-6.7c3.1-4.5,3.7-9.4,1.9-14.7L750.6,609C759.4,603.7,767.2,595.8,773.9,585.2z"/>
		</g>
		<g>
			
				<linearGradient id="SVGID_43_" gradientUnits="userSpaceOnUse" x1="187.3168" y1="637.9067" x2="612.5317" y2="243.4713" gradientTransform="matrix(1 0 0 -1 0 861.8898)">
				<stop  offset="1.715443e-03" style="stop-color:#7CEAFF"/>
				<stop  offset="0.4647" style="stop-color:#5489ED"/>
				<stop  offset="1" style="stop-color:#364499"/>
			</linearGradient>
			<path class="st45" d="M692,331.5c0-28.5-14.2-60.2-44.3-69.8c-50.7,22.1-120.5,31.6-196.5,37.9c15.9-55.4,25.5-118.8,25.5-137.8
				c0.1-85.6-49-128.4-106.1-128.4c-26.9,0-52.3,7.9-65,23.7c0,60.2-12.8,172.7-28.7,253.5c-30.1,1.6-63.4,4.2-99.8,6.3
				C64.4,323.2,23.3,369,23.2,416.5c0,8.6,2.3,20.2,7.2,29.7c3.6,7,10.6,11.7,18.5,12.1c47.8,3,128,5.8,194.5,5.9
				c-7.9,39.6-15.9,98.2-15.9,128.3c-0.1,72.9,30,112.5,76,112.6c22.2,0,42.8-6.3,50.7-14.2c11.1-47.5,46.1-160,62-228.1
				C622.2,450.3,691.9,407.6,692,331.5z"/>
			
				<linearGradient id="SVGID_44_" gradientUnits="userSpaceOnUse" x1="147.6242" y1="599.5778" x2="572.8491" y2="205.1333" gradientTransform="matrix(1 0 0 -1 0 861.8898)">
				<stop  offset="1.715443e-03" style="stop-color:#7CEAFF"/>
				<stop  offset="0.4647" style="stop-color:#5489ED"/>
				<stop  offset="1" style="stop-color:#364499"/>
			</linearGradient>
			<path class="st46" d="M554.5,579.2l-1.1,5.2h-63.9l1.1-5.2c1.5-7.1,4.2-13.7,8.1-19.6s8.8-10.2,14.6-12.7
				c5.8-2.5,11.5-3.8,17.1-3.8s10.6,1.3,15.3,3.8c4.6,2.5,7.6,6.7,9,12.5C556.2,565.2,556.1,571.8,554.5,579.2z M595.3,519
				c-7.6-8.5-16.2-14.3-25.8-17.6c-9.6-3.3-19.4-5-29.5-5c-13.2,0-25.9,2.4-38,7.1s-22.8,11.2-31.9,19.4c-9.1,8.2-16.8,17.6-23,28.2
				c-6.2,10.6-10.5,21.4-12.9,32.5l-8.9,42c-3.7,17.5-3.1,32.8,1.7,46c4.9,13.2,13.5,23.5,25.8,30.7s28.4,10.9,48.3,10.9
				c16.4,0,34.5-2.5,54.1-8.3c6-1.8,10.5-4.9,13.6-9.1c3.1-4.2,4.6-9,4.4-14.3l-0.4-7.5c-0.5-11.4-7.5-15.6-21.1-12.7
				c-16.1,3.4-29.8,5.2-41.2,5.2c-13.8,0-22.9-3.5-27.3-10.5c-4.5-7-5.3-17.1-2.5-30.3l0.7-3.2h109.1c2.6,0,5.2-1,7.8-3.2
				c2.6-2.1,4.1-4.5,4.7-7.1l6.1-28.6c2.3-10.8,2.5-22.2,0.5-34.1C607.7,537.6,602.9,527.4,595.3,519z"/>
			
				<linearGradient id="SVGID_45_" gradientUnits="userSpaceOnUse" x1="237.9726" y1="696.9623" x2="663.1873" y2="302.5269" gradientTransform="matrix(1 0 0 -1 0 861.8898)">
				<stop  offset="1.715443e-03" style="stop-color:#7CEAFF"/>
				<stop  offset="0.4647" style="stop-color:#5489ED"/>
				<stop  offset="1" style="stop-color:#364499"/>
			</linearGradient>
			<path class="st47" d="M773.5,584.8l37.7-57.9c3.5-5.3,4.5-9.9,3.2-13.9c-1.4-4-5.2-6-11.2-6h-20.6c-7.1,0-12.6,1.4-16.4,4.2
				c-3.8,2.8-6.8,6-9.2,9.7L730,563.4c-3.6,5.8-8.2,9.5-13.9,11.1l-16.9,4.8l28.6-134.5c1.2-5.5,0.4-10.1-2.5-13.7s-7-5.4-12.5-5.4
				h-17.5c-5.5,0-10.5,1.8-14.8,5.4c-4.3,3.6-7.1,8.1-8.3,13.7l-53.1,249.9c-1.2,5.5-0.4,10.1,2.4,13.7c2.8,3.6,7,5.4,12.5,5.4h17.5
				c5.5,0,10.5-1.8,14.8-5.4s7.1-8.1,8.3-13.7l14.2-66.6l10-2.4l23.9,74.2c3.3,9.3,10.5,13.9,21.6,13.9h20.6
				c5.8,0,10.3-2.2,13.3-6.7c3.1-4.5,3.7-9.4,1.9-14.7l-30.2-83.7C759,603.3,766.7,595.4,773.5,584.8z"/>
		</g>
		<g>
			
				<linearGradient id="SVGID_46_" gradientUnits="userSpaceOnUse" x1="186.4639" y1="638.4197" x2="611.6788" y2="243.9845" gradientTransform="matrix(1 0 0 -1 0 861.8898)">
				<stop  offset="1.715443e-03" style="stop-color:#7AEDFF"/>
				<stop  offset="0.4647" style="stop-color:#4F85EC"/>
				<stop  offset="1" style="stop-color:#2F3C92"/>
			</linearGradient>
			<path class="st48" d="M691.1,331c0-28.5-14.2-60.2-44.3-69.8c-50.7,22.1-120.5,31.6-196.5,37.9c15.9-55.4,25.5-118.8,25.5-137.8
				c0.1-85.6-49-128.4-106.1-128.4c-26.9,0-52.3,7.9-65,23.7c0,60.2-12.8,172.7-28.7,253.5c-30.1,1.6-63.4,4.2-99.8,6.3
				C63.6,322.6,22.4,368.5,22.4,416c0,8.7,2.3,20.5,7.3,30c3.6,6.9,10.5,11.4,18.2,11.9c47.8,3,128.1,5.8,194.7,5.9
				c-7.9,39.6-15.9,98.2-15.9,128.3c-0.1,72.9,30,112.5,76,112.6c22.2,0,42.8-6.3,50.7-14.2c11.1-47.5,46.1-160,62-228.1
				C621.3,449.8,691.1,407,691.1,331z"/>
			
				<linearGradient id="SVGID_47_" gradientUnits="userSpaceOnUse" x1="147.1735" y1="599.9685" x2="572.3983" y2="205.524" gradientTransform="matrix(1 0 0 -1 0 861.8898)">
				<stop  offset="1.715443e-03" style="stop-color:#7AEDFF"/>
				<stop  offset="0.4647" style="stop-color:#4F85EC"/>
				<stop  offset="1" style="stop-color:#2F3C92"/>
			</linearGradient>
			<path class="st49" d="M554.1,578.8L553,584h-63.9l1.1-5.2c1.5-7.1,4.2-13.7,8.1-19.6s8.8-10.2,14.6-12.7
				c5.8-2.5,11.5-3.8,17.1-3.8s10.6,1.3,15.3,3.8c4.6,2.5,7.6,6.7,9,12.5C555.7,564.8,555.6,571.5,554.1,578.8z M594.8,518.6
				c-7.6-8.5-16.2-14.3-25.8-17.6c-9.6-3.3-19.4-5-29.5-5c-13.2,0-25.9,2.4-38,7.1s-22.8,11.2-31.9,19.4c-9.1,8.2-16.8,17.6-23,28.2
				c-6.2,10.6-10.5,21.4-12.9,32.5l-8.9,42c-3.7,17.5-3.1,32.8,1.7,46c4.9,13.2,13.5,23.5,25.8,30.7s28.4,10.9,48.3,10.9
				c16.4,0,34.5-2.5,54.1-8.3c6-1.8,10.5-4.9,13.6-9.1c3.1-4.2,4.6-9,4.4-14.3l-0.4-7.5c-0.5-11.4-7.5-15.6-21.1-12.7
				c-16.1,3.4-29.8,5.2-41.2,5.2c-13.8,0-22.9-3.5-27.3-10.5c-4.5-7-5.3-17.1-2.5-30.3l0.7-3.2h109.1c2.6,0,5.2-1,7.8-3.2
				c2.6-2.1,4.1-4.5,4.7-7.1l6.1-28.6c2.3-10.8,2.5-22.2,0.5-34.1C607.2,537.2,602.4,527,594.8,518.6z"/>
			
				<linearGradient id="SVGID_48_" gradientUnits="userSpaceOnUse" x1="237.5172" y1="697.3479" x2="662.7321" y2="302.9126" gradientTransform="matrix(1 0 0 -1 0 861.8898)">
				<stop  offset="1.715443e-03" style="stop-color:#7AEDFF"/>
				<stop  offset="0.4647" style="stop-color:#4F85EC"/>
				<stop  offset="1" style="stop-color:#2F3C92"/>
			</linearGradient>
			<path class="st50" d="M773,584.5l37.7-57.9c3.5-5.3,4.5-9.9,3.2-13.9c-1.4-4-5.2-6-11.2-6H782c-7.1,0-12.6,1.4-16.4,4.2
				c-3.8,2.8-6.8,6-9.2,9.7L729.6,563c-3.6,5.8-8.2,9.5-13.9,11.1l-16.9,4.8l28.6-134.5c1.2-5.5,0.4-10.1-2.5-13.7s-7-5.4-12.5-5.4
				H695c-5.5,0-10.5,1.8-14.8,5.4c-4.3,3.6-7.1,8.1-8.3,13.7l-53.1,249.9c-1.2,5.5-0.4,10.1,2.4,13.7c2.8,3.6,7,5.4,12.5,5.4h17.5
				c5.5,0,10.5-1.8,14.8-5.4s7.1-8.1,8.3-13.7l14.2-66.6l10-2.4l23.9,74.2c3.3,9.3,10.5,13.9,21.6,13.9h20.6
				c5.8,0,10.3-2.2,13.3-6.7c3.1-4.5,3.7-9.4,1.9-14.7l-30.2-83.7C758.5,603,766.3,595,773,584.5z"/>
		</g>
		<g>
			
				<linearGradient id="SVGID_49_" gradientUnits="userSpaceOnUse" x1="185.6159" y1="638.9379" x2="610.8308" y2="244.5026" gradientTransform="matrix(1 0 0 -1 0 861.8898)">
				<stop  offset="1.715443e-03" style="stop-color:#78F0FF"/>
				<stop  offset="0.4647" style="stop-color:#4B81EA"/>
				<stop  offset="1" style="stop-color:#29338C"/>
			</linearGradient>
			<path class="st51" d="M690.3,330.5c0-28.5-14.2-60.2-44.3-69.8c-50.7,22.1-120.5,31.6-196.5,37.9
				c15.9-55.4,25.5-118.8,25.5-137.8c0.1-85.6-49-128.4-106.1-128.4c-26.9,0-52.3,7.9-65,23.7c0,60.2-12.8,172.7-28.7,253.5
				c-30.1,1.6-63.4,4.2-99.8,6.3C62.7,322.1,21.6,368,21.5,415.5c0,8.8,2.4,20.7,7.5,30.2c3.6,6.7,10.3,11.1,17.9,11.6
				c47.7,3,128.2,5.8,194.9,5.9c-7.9,39.6-15.9,98.2-15.9,128.3c-0.1,72.9,30,112.5,76,112.6c22.2,0,42.8-6.3,50.7-14.2
				c11.1-47.5,46.1-160,62-228.1C620.5,449.2,690.2,406.5,690.3,330.5z"/>
			
				<linearGradient id="SVGID_50_" gradientUnits="userSpaceOnUse" x1="146.7182" y1="600.3542" x2="571.9429" y2="205.9097" gradientTransform="matrix(1 0 0 -1 0 861.8898)">
				<stop  offset="1.715443e-03" style="stop-color:#78F0FF"/>
				<stop  offset="0.4647" style="stop-color:#4B81EA"/>
				<stop  offset="1" style="stop-color:#29338C"/>
			</linearGradient>
			<path class="st52" d="M553.6,578.5l-1.1,5.2h-63.9l1.1-5.2c1.5-7.1,4.2-13.7,8.1-19.6s8.8-10.2,14.6-12.7
				c5.8-2.5,11.5-3.8,17.1-3.8s10.6,1.3,15.3,3.8c4.6,2.5,7.6,6.7,9,12.5C555.3,564.5,555.2,571.1,553.6,578.5z M594.4,518.2
				c-7.6-8.5-16.2-14.3-25.8-17.6c-9.6-3.3-19.4-5-29.5-5c-13.2,0-25.9,2.4-38,7.1s-22.8,11.2-31.9,19.4c-9.1,8.2-16.8,17.6-23,28.2
				c-6.2,10.6-10.5,21.4-12.9,32.5l-8.9,42c-3.7,17.5-3.1,32.8,1.7,46c4.9,13.2,13.5,23.5,25.8,30.7s28.4,10.9,48.3,10.9
				c16.4,0,34.5-2.5,54.1-8.3c6-1.8,10.5-4.9,13.6-9.1c3.1-4.2,4.6-9,4.4-14.3l-0.4-7.5c-0.5-11.4-7.5-15.6-21.1-12.7
				c-16.1,3.4-29.8,5.2-41.2,5.2c-13.8,0-22.9-3.5-27.3-10.5c-4.5-7-5.3-17.1-2.5-30.3l0.7-3.2h109.1c2.6,0,5.2-1,7.8-3.2
				c2.6-2.1,4.1-4.5,4.7-7.1l6.1-28.6c2.3-10.8,2.5-22.2,0.5-34.1C606.8,536.8,602,526.6,594.4,518.2z"/>
			
				<linearGradient id="SVGID_51_" gradientUnits="userSpaceOnUse" x1="237.0664" y1="697.7386" x2="662.2814" y2="303.3033" gradientTransform="matrix(1 0 0 -1 0 861.8898)">
				<stop  offset="1.715443e-03" style="stop-color:#78F0FF"/>
				<stop  offset="0.4647" style="stop-color:#4B81EA"/>
				<stop  offset="1" style="stop-color:#29338C"/>
			</linearGradient>
			<path class="st53" d="M772.6,584.1l37.7-57.9c3.5-5.3,4.5-9.9,3.2-13.9c-1.4-4-5.2-6-11.2-6h-20.6c-7.1,0-12.6,1.4-16.4,4.2
				c-3.8,2.8-6.8,6-9.2,9.7l-26.9,42.4c-3.6,5.8-8.2,9.5-13.9,11.1l-16.9,4.8L727,444c1.2-5.5,0.4-10.1-2.5-13.7s-7-5.4-12.5-5.4
				h-17.5c-5.5,0-10.5,1.8-14.8,5.4c-4.3,3.6-7.1,8.1-8.3,13.7l-53.1,249.9c-1.2,5.5-0.4,10.1,2.4,13.7c2.8,3.6,7,5.4,12.5,5.4h17.5
				c5.5,0,10.5-1.8,14.8-5.4s7.1-8.1,8.3-13.7l14.2-66.6l10-2.4l23.9,74.2c3.3,9.3,10.5,13.9,21.6,13.9h20.6
				c5.8,0,10.3-2.2,13.3-6.7c3.1-4.5,3.7-9.4,1.9-14.7l-30.2-83.7C758,602.6,765.8,594.6,772.6,584.1z"/>
		</g>
		<g>
			
				<linearGradient id="SVGID_52_" gradientUnits="userSpaceOnUse" x1="184.7676" y1="639.4559" x2="609.9825" y2="245.0206" gradientTransform="matrix(1 0 0 -1 0 861.8898)">
				<stop  offset="1.715443e-03" style="stop-color:#76F2FF"/>
				<stop  offset="0.4647" style="stop-color:#467DE9"/>
				<stop  offset="1" style="stop-color:#222B85"/>
			</linearGradient>
			<path class="st54" d="M689.4,330c0-28.5-14.2-60.2-44.3-69.8c-50.7,22.1-120.5,31.6-196.5,37.9c15.9-55.4,25.5-118.8,25.5-137.8
				C474.1,74.7,425,31.8,368,31.8c-26.9,0-52.3,7.9-65,23.7c0,60.2-12.8,172.7-28.7,253.5c-30.1,1.6-63.4,4.2-99.8,6.3
				C61.9,321.6,20.7,367.4,20.7,415c0,8.9,2.4,20.9,7.6,30.5c3.5,6.5,10.1,10.9,17.6,11.3c47.7,3,128.3,5.8,195.1,5.9
				C233,502.3,225,560.9,225,591c-0.1,72.9,30,112.5,76,112.6c22.2,0,42.8-6.3,50.7-14.2c11.1-47.5,46.1-160,62-228.1
				C619.6,448.7,689.4,406,689.4,330z"/>
			
				<linearGradient id="SVGID_53_" gradientUnits="userSpaceOnUse" x1="146.2673" y1="600.7448" x2="571.4922" y2="206.3003" gradientTransform="matrix(1 0 0 -1 0 861.8898)">
				<stop  offset="1.715443e-03" style="stop-color:#76F2FF"/>
				<stop  offset="0.4647" style="stop-color:#467DE9"/>
				<stop  offset="1" style="stop-color:#222B85"/>
			</linearGradient>
			<path class="st55" d="M553.2,578.1l-1.1,5.2h-63.9l1.1-5.2c1.5-7.1,4.2-13.7,8.1-19.6s8.8-10.2,14.6-12.7
				c5.8-2.5,11.5-3.8,17.1-3.8s10.6,1.3,15.3,3.8c4.6,2.5,7.6,6.7,9,12.5C554.8,564.1,554.7,570.7,553.2,578.1z M593.9,517.8
				c-7.6-8.5-16.2-14.3-25.8-17.6c-9.6-3.3-19.4-5-29.5-5c-13.2,0-25.9,2.4-38,7.1s-22.8,11.2-31.9,19.4c-9.1,8.2-16.8,17.6-23,28.2
				c-6.2,10.6-10.5,21.4-12.9,32.5l-8.9,42c-3.7,17.5-3.1,32.8,1.7,46c4.9,13.2,13.5,23.5,25.8,30.7s28.4,10.9,48.3,10.9
				c16.4,0,34.5-2.5,54.1-8.3c6-1.8,10.5-4.9,13.6-9.1c3.1-4.2,4.6-9,4.4-14.3l-0.4-7.5c-0.5-11.4-7.5-15.6-21.1-12.7
				c-16.1,3.4-29.8,5.2-41.2,5.2c-13.8,0-22.9-3.5-27.3-10.5c-4.5-7-5.3-17.1-2.5-30.3l0.7-3.2h109.1c2.6,0,5.2-1,7.8-3.2
				c2.6-2.1,4.1-4.5,4.7-7.1l6.1-28.6c2.3-10.8,2.5-22.2,0.5-34.1C606.3,536.4,601.5,526.2,593.9,517.8z"/>
			
				<linearGradient id="SVGID_54_" gradientUnits="userSpaceOnUse" x1="236.6107" y1="698.1238" x2="661.8256" y2="303.6885" gradientTransform="matrix(1 0 0 -1 0 861.8898)">
				<stop  offset="1.715443e-03" style="stop-color:#76F2FF"/>
				<stop  offset="0.4647" style="stop-color:#467DE9"/>
				<stop  offset="1" style="stop-color:#222B85"/>
			</linearGradient>
			<path class="st56" d="M772.1,583.7l37.7-57.9c3.5-5.3,4.5-9.9,3.2-13.9c-1.4-4-5.2-6-11.2-6h-20.6c-7.1,0-12.6,1.4-16.4,4.2
				c-3.8,2.8-6.8,6-9.2,9.7l-26.9,42.4c-3.6,5.8-8.2,9.5-13.9,11.1l-16.9,4.8l28.6-134.5c1.2-5.5,0.4-10.1-2.5-13.7s-7-5.4-12.5-5.4
				h-17.5c-5.5,0-10.5,1.8-14.8,5.4c-4.3,3.6-7.1,8.1-8.3,13.7l-53.1,249.9c-1.2,5.5-0.4,10.1,2.4,13.7c2.8,3.6,7,5.4,12.5,5.4h17.5
				c5.5,0,10.5-1.8,14.8-5.4s7.1-8.1,8.3-13.7l14.2-66.6l10-2.4l23.9,74.2c3.3,9.3,10.5,13.9,21.6,13.9h20.6
				c5.8,0,10.3-2.2,13.3-6.7c3.1-4.5,3.7-9.4,1.9-14.7l-30.2-83.7C757.6,602.2,765.4,594.3,772.1,583.7z"/>
		</g>
		<g>
			
				<linearGradient id="SVGID_55_" gradientUnits="userSpaceOnUse" x1="183.9147" y1="639.9689" x2="609.1296" y2="245.5337" gradientTransform="matrix(1 0 0 -1 0 861.8898)">
				<stop  offset="1.715443e-03" style="stop-color:#74F5FF"/>
				<stop  offset="0.4647" style="stop-color:#4179E8"/>
				<stop  offset="1" style="stop-color:#1B227E"/>
			</linearGradient>
			<path class="st57" d="M688.6,329.4c0-28.5-14.2-60.2-44.3-69.8c-50.7,22.1-120.5,31.6-196.5,37.9
				c15.9-55.4,25.5-118.8,25.5-137.8c0.1-85.6-49-128.4-106.1-128.4c-26.9,0-52.3,7.9-65,23.7c0,60.2-12.8,172.7-28.7,253.5
				c-30.1,1.6-63.4,4.2-99.8,6.3C61,321.1,19.9,366.9,19.8,414.5c0,9,2.4,21.1,7.7,30.8c3.5,6.4,10,10.6,17.3,11
				c47.7,3,128.4,5.8,195.2,5.9c-7.9,39.6-15.9,98.2-15.9,128.3c-0.1,72.9,30,112.5,76,112.6c22.2,0,42.8-6.3,50.7-14.2
				c11.1-47.5,46.1-160,62-228.1C618.8,448.2,688.5,405.5,688.6,329.4z"/>
			
				<linearGradient id="SVGID_56_" gradientUnits="userSpaceOnUse" x1="145.8167" y1="601.1355" x2="571.0415" y2="206.691" gradientTransform="matrix(1 0 0 -1 0 861.8898)">
				<stop  offset="1.715443e-03" style="stop-color:#74F5FF"/>
				<stop  offset="0.4647" style="stop-color:#4179E8"/>
				<stop  offset="1" style="stop-color:#1B227E"/>
			</linearGradient>
			<path class="st58" d="M552.7,577.7l-1.1,5.2h-63.9l1.1-5.2c1.5-7.1,4.2-13.7,8.1-19.6s8.8-10.2,14.6-12.7
				c5.8-2.5,11.5-3.8,17.1-3.8s10.6,1.3,15.3,3.8c4.6,2.5,7.6,6.7,9,12.5C554.4,563.7,554.3,570.3,552.7,577.7z M593.5,517.4
				c-7.6-8.5-16.2-14.3-25.8-17.6c-9.6-3.3-19.4-5-29.5-5c-13.2,0-25.9,2.4-38,7.1s-22.8,11.2-31.9,19.4c-9.1,8.2-16.8,17.6-23,28.2
				c-6.2,10.6-10.5,21.4-12.9,32.5l-8.9,42c-3.7,17.5-3.1,32.8,1.7,46c4.9,13.2,13.5,23.5,25.8,30.7s28.4,10.9,48.3,10.9
				c16.4,0,34.5-2.5,54.1-8.3c6-1.8,10.5-4.9,13.6-9.1c3.1-4.2,4.6-9,4.4-14.3l-0.4-7.5c-0.5-11.4-7.5-15.6-21.1-12.7
				c-16.1,3.4-29.8,5.2-41.2,5.2c-13.8,0-22.9-3.5-27.3-10.5c-4.5-7-5.3-17.1-2.5-30.3l0.7-3.2h109.1c2.6,0,5.2-1,7.8-3.2
				c2.6-2.1,4.1-4.5,4.7-7.1l6.1-28.6c2.3-10.8,2.5-22.2,0.5-34.1S601.1,525.9,593.5,517.4z"/>
			
				<linearGradient id="SVGID_57_" gradientUnits="userSpaceOnUse" x1="236.16" y1="698.5146" x2="661.3749" y2="304.0792" gradientTransform="matrix(1 0 0 -1 0 861.8898)">
				<stop  offset="1.715443e-03" style="stop-color:#74F5FF"/>
				<stop  offset="0.4647" style="stop-color:#4179E8"/>
				<stop  offset="1" style="stop-color:#1B227E"/>
			</linearGradient>
			<path class="st59" d="M771.7,583.3l37.7-57.9c3.5-5.3,4.5-9.9,3.2-13.9c-1.4-4-5.2-6-11.2-6h-20.6c-7.1,0-12.6,1.4-16.4,4.2
				c-3.8,2.8-6.8,6-9.2,9.7l-26.9,42.4c-3.6,5.8-8.2,9.5-13.9,11.1l-16.9,4.8l28.6-134.5c1.2-5.5,0.4-10.1-2.5-13.7s-7-5.4-12.5-5.4
				h-17.5c-5.5,0-10.5,1.8-14.8,5.4c-4.3,3.6-7.1,8.1-8.3,13.7l-53.1,249.9c-1.2,5.5-0.4,10.1,2.4,13.7c2.8,3.6,7,5.4,12.5,5.4h17.5
				c5.5,0,10.5-1.8,14.8-5.4s7.1-8.1,8.3-13.7l14.2-66.6l10-2.4l23.9,74.2c3.3,9.3,10.5,13.9,21.6,13.9h20.6
				c5.8,0,10.3-2.2,13.3-6.7c3.1-4.5,3.7-9.4,1.9-14.7l-30.2-83.7C757.2,601.8,764.9,593.9,771.7,583.3z"/>
		</g>
		<g>
			
				<linearGradient id="SVGID_58_" gradientUnits="userSpaceOnUse" x1="183.069" y1="640.4896" x2="608.2839" y2="246.0543" gradientTransform="matrix(1 0 0 -1 0 861.8898)">
				<stop  offset="1.715443e-03" style="stop-color:#71F7FF"/>
				<stop  offset="0.4647" style="stop-color:#3C75E7"/>
				<stop  offset="1" style="stop-color:#141A77"/>
			</linearGradient>
			<path class="st60" d="M687.7,328.9c0-28.5-14.2-60.2-44.3-69.8C592.7,281.3,523,290.8,446.9,297c15.9-55.4,25.5-118.8,25.5-137.8
				c0.1-85.6-49-128.4-106.1-128.4c-26.9,0-52.3,7.9-65,23.7c0,60.2-12.8,172.7-28.7,253.5c-30.1,1.6-63.4,4.2-99.8,6.3
				C60.2,320.6,19,366.4,19,413.9c0,9,2.5,21.3,7.9,31c3.5,6.2,9.8,10.3,16.9,10.8c47.7,3,128.5,5.9,195.4,5.9
				c-7.9,39.6-15.9,98.2-15.9,128.3c-0.1,72.9,30,112.5,76,112.6c22.2,0,42.8-6.3,50.7-14.2c11.1-47.5,46.1-160,62-228.1
				C617.9,447.7,687.7,405,687.7,328.9z"/>
			
				<linearGradient id="SVGID_59_" gradientUnits="userSpaceOnUse" x1="145.3613" y1="601.5212" x2="570.5861" y2="207.0768" gradientTransform="matrix(1 0 0 -1 0 861.8898)">
				<stop  offset="1.715443e-03" style="stop-color:#71F7FF"/>
				<stop  offset="0.4647" style="stop-color:#3C75E7"/>
				<stop  offset="1" style="stop-color:#141A77"/>
			</linearGradient>
			<path class="st61" d="M552.2,577.3l-1.1,5.2h-63.9l1.1-5.2c1.5-7.1,4.2-13.7,8.1-19.6s8.8-10.2,14.6-12.7
				c5.8-2.5,11.5-3.8,17.1-3.8s10.6,1.3,15.3,3.8c4.6,2.5,7.6,6.7,9,12.5C553.9,563.3,553.8,569.9,552.2,577.3z M593,517
				c-7.6-8.5-16.2-14.3-25.8-17.6c-9.6-3.3-19.4-5-29.5-5c-13.2,0-25.9,2.4-38,7.1S477,512.8,467.8,521c-9.1,8.2-16.8,17.6-23,28.2
				c-6.2,10.6-10.5,21.4-12.9,32.5l-8.9,42c-3.7,17.5-3.1,32.8,1.7,46c4.9,13.2,13.5,23.5,25.8,30.7s28.4,10.9,48.3,10.9
				c16.4,0,34.5-2.5,54.1-8.3c6-1.8,10.5-4.9,13.6-9.1c3.1-4.2,4.6-9,4.4-14.3l-0.4-7.5c-0.5-11.4-7.5-15.6-21.1-12.7
				c-16.1,3.4-29.8,5.2-41.2,5.2c-13.8,0-22.9-3.5-27.3-10.5c-4.5-7-5.3-17.1-2.5-30.3l0.7-3.2h109.1c2.6,0,5.2-1,7.8-3.2
				c2.6-2.1,4.1-4.5,4.7-7.1l6.1-28.6c2.3-10.8,2.5-22.2,0.5-34.1C605.4,535.7,600.6,525.5,593,517z"/>
			
				<linearGradient id="SVGID_60_" gradientUnits="userSpaceOnUse" x1="235.7069" y1="698.9028" x2="660.9218" y2="304.4674" gradientTransform="matrix(1 0 0 -1 0 861.8898)">
				<stop  offset="1.715443e-03" style="stop-color:#71F7FF"/>
				<stop  offset="0.4647" style="stop-color:#3C75E7"/>
				<stop  offset="1" style="stop-color:#141A77"/>
			</linearGradient>
			<path class="st62" d="M771.2,582.9l37.7-57.9c3.5-5.3,4.5-9.9,3.2-13.9c-1.4-4-5.2-6-11.2-6h-20.6c-7.1,0-12.6,1.4-16.4,4.2
				c-3.8,2.8-6.8,6-9.2,9.7l-26.9,42.4c-3.6,5.8-8.2,9.5-13.9,11.1l-16.9,4.8l28.6-134.5c1.2-5.5,0.4-10.1-2.5-13.7s-7-5.4-12.5-5.4
				h-17.5c-5.5,0-10.5,1.8-14.8,5.4c-4.3,3.6-7.1,8.1-8.3,13.7L617,692.8c-1.2,5.5-0.4,10.1,2.4,13.7c2.8,3.6,7,5.4,12.5,5.4h17.5
				c5.5,0,10.5-1.8,14.8-5.4s7.1-8.1,8.3-13.7l14.2-66.6l10-2.4l23.9,74.2c3.3,9.3,10.5,13.9,21.6,13.9h20.6
				c5.8,0,10.3-2.2,13.3-6.7c3.1-4.5,3.7-9.4,1.9-14.7l-30.2-83.7C756.7,601.4,764.5,593.5,771.2,582.9z"/>
		</g>
		<g>
			
				<linearGradient id="SVGID_61_" gradientUnits="userSpaceOnUse" x1="182.2185" y1="641.0051" x2="607.4333" y2="246.5699" gradientTransform="matrix(1 0 0 -1 0 861.8898)">
				<stop  offset="1.715443e-03" style="stop-color:#6FFAFF"/>
				<stop  offset="0.4647" style="stop-color:#3871E5"/>
				<stop  offset="1" style="stop-color:#0E1171"/>
			</linearGradient>
			<path class="st63" d="M686.9,328.4c0-28.5-14.2-60.2-44.3-69.8c-50.7,22.1-120.5,31.6-196.5,37.9
				c15.9-55.4,25.5-118.8,25.5-137.8c0.1-85.6-49-128.4-106.1-128.4c-26.9,0-52.3,7.9-65,23.7c0,60.2-12.8,172.7-28.7,253.5
				c-30.1,1.6-63.4,4.2-99.8,6.3C59.3,320,18.2,365.9,18.1,413.4c0,9.1,2.5,21.5,8,31.3c3.4,6.1,9.6,10,16.6,10.5
				c47.7,3,128.6,5.9,195.6,5.9c-7.9,39.6-15.9,98.2-15.9,128.3c-0.1,72.9,30,112.5,76,112.6c22.2,0,42.8-6.3,50.7-14.2
				c11.1-47.5,46.1-160,62-228.1C617.1,447.2,686.8,404.5,686.9,328.4z"/>
			
				<linearGradient id="SVGID_62_" gradientUnits="userSpaceOnUse" x1="144.9056" y1="601.9066" x2="570.1304" y2="207.4621" gradientTransform="matrix(1 0 0 -1 0 861.8898)">
				<stop  offset="1.715443e-03" style="stop-color:#6FFAFF"/>
				<stop  offset="0.4647" style="stop-color:#3871E5"/>
				<stop  offset="1" style="stop-color:#0E1171"/>
			</linearGradient>
			<path class="st64" d="M551.8,576.9l-1.1,5.2h-63.9l1.1-5.2c1.5-7.1,4.2-13.7,8.1-19.6s8.8-10.2,14.6-12.7
				c5.8-2.5,11.5-3.8,17.1-3.8s10.6,1.3,15.3,3.8c4.6,2.5,7.6,6.7,9,12.5C553.5,562.9,553.4,569.5,551.8,576.9z M592.6,516.6
				c-7.6-8.5-16.2-14.3-25.8-17.6c-9.6-3.3-19.4-5-29.5-5c-13.2,0-25.9,2.4-38,7.1s-22.8,11.2-31.9,19.4c-9.1,8.2-16.8,17.6-23,28.2
				c-6.2,10.6-10.5,21.4-12.9,32.5l-8.9,42c-3.7,17.5-3.1,32.8,1.7,46c4.9,13.2,13.5,23.5,25.8,30.7s28.4,10.9,48.3,10.9
				c16.4,0,34.5-2.5,54.1-8.3c6-1.8,10.5-4.9,13.6-9.1c3.1-4.2,4.6-9,4.4-14.3l-0.4-7.5c-0.5-11.4-7.5-15.6-21.1-12.7
				c-16.1,3.4-29.8,5.2-41.2,5.2c-13.8,0-22.9-3.5-27.3-10.5c-4.5-7-5.3-17.1-2.5-30.3l0.7-3.2h109.1c2.6,0,5.2-1,7.8-3.2
				c2.6-2.1,4.1-4.5,4.7-7.1l6.1-28.6c2.3-10.8,2.5-22.2,0.5-34.1C604.9,535.3,600.2,525.1,592.6,516.6z"/>
			
				<linearGradient id="SVGID_63_" gradientUnits="userSpaceOnUse" x1="235.254" y1="699.2909" x2="660.4688" y2="304.8556" gradientTransform="matrix(1 0 0 -1 0 861.8898)">
				<stop  offset="1.715443e-03" style="stop-color:#6FFAFF"/>
				<stop  offset="0.4647" style="stop-color:#3871E5"/>
				<stop  offset="1" style="stop-color:#0E1171"/>
			</linearGradient>
			<path class="st65" d="M770.8,582.5l37.7-57.9c3.5-5.3,4.5-9.9,3.2-13.9c-1.4-4-5.2-6-11.2-6h-20.6c-7.1,0-12.6,1.4-16.4,4.2
				c-3.8,2.8-6.8,6-9.2,9.7l-26.9,42.4c-3.6,5.8-8.2,9.5-13.9,11.1l-16.9,4.8l28.6-134.5c1.2-5.5,0.4-10.1-2.5-13.7s-7-5.4-12.5-5.4
				h-17.5c-5.5,0-10.5,1.8-14.8,5.4c-4.3,3.6-7.1,8.1-8.3,13.7l-53.1,249.9c-1.2,5.5-0.4,10.1,2.4,13.7c2.8,3.6,7,5.4,12.5,5.4h17.5
				c5.5,0,10.5-1.8,14.8-5.4s7.1-8.1,8.3-13.7l14.2-66.6l10-2.4l23.9,74.2c3.3,9.3,10.5,13.9,21.6,13.9h20.6
				c5.8,0,10.3-2.2,13.3-6.7c3.1-4.5,3.7-9.4,1.9-14.7l-30.2-83.7C756.2,601,764,593.1,770.8,582.5z"/>
		</g>
		<g>
			
				<linearGradient id="SVGID_64_" gradientUnits="userSpaceOnUse" x1="181.3679" y1="641.5206" x2="606.5828" y2="247.0853" gradientTransform="matrix(1 0 0 -1 0 861.8898)">
				<stop  offset="1.715443e-03" style="stop-color:#6DFCFF"/>
				<stop  offset="0.4647" style="stop-color:#336DE4"/>
				<stop  offset="1" style="stop-color:#07096A"/>
			</linearGradient>
			<path class="st66" d="M686,327.9c0-28.5-14.2-60.2-44.3-69.8C591,280.3,521.3,289.7,445.2,296c15.9-55.4,25.5-118.8,25.5-137.8
				c0.1-85.6-49-128.4-106.1-128.4c-26.9,0-52.3,7.9-65,23.7c0,60.2-12.8,172.7-28.7,253.5c-30.1,1.6-63.4,4.2-99.8,6.3
				c-112.6,6.3-153.7,52.2-153.8,99.7c0,9.2,2.5,21.8,8.1,31.6c3.4,5.9,9.5,9.8,16.3,10.2c47.6,3,128.7,5.9,195.8,5.9
				c-7.9,39.6-15.9,98.2-15.9,128.3c-0.1,72.9,30,112.5,76,112.6c22.2,0,42.8-6.3,50.7-14.2c11.1-47.5,46.1-160,62-228.1
				C616.2,446.7,686,404,686,327.9z"/>
			
				<linearGradient id="SVGID_65_" gradientUnits="userSpaceOnUse" x1="144.4548" y1="602.2972" x2="569.6797" y2="207.8527" gradientTransform="matrix(1 0 0 -1 0 861.8898)">
				<stop  offset="1.715443e-03" style="stop-color:#6DFCFF"/>
				<stop  offset="0.4647" style="stop-color:#336DE4"/>
				<stop  offset="1" style="stop-color:#07096A"/>
			</linearGradient>
			<path class="st67" d="M551.3,576.5l-1.1,5.2h-63.9l1.1-5.2c1.5-7.1,4.2-13.7,8.1-19.6s8.8-10.2,14.6-12.7
				c5.8-2.5,11.5-3.8,17.1-3.8s10.6,1.3,15.3,3.8c4.6,2.5,7.6,6.7,9,12.5C553,562.5,552.9,569.1,551.3,576.5z M592.1,516.2
				c-7.6-8.5-16.2-14.3-25.8-17.6c-9.6-3.3-19.4-5-29.5-5c-13.2,0-25.9,2.4-38,7.1s-22.8,11.2-31.9,19.4c-9.1,8.2-16.8,17.6-23,28.2
				c-6.2,10.6-10.5,21.4-12.9,32.5l-8.9,42c-3.7,17.5-3.1,32.8,1.7,46c4.9,13.2,13.5,23.5,25.8,30.7s28.4,10.9,48.3,10.9
				c16.4,0,34.5-2.5,54.1-8.3c6-1.8,10.5-4.9,13.6-9.1c3.1-4.2,4.6-9,4.4-14.3l-0.4-7.5c-0.5-11.4-7.5-15.6-21.1-12.7
				c-16.1,3.4-29.8,5.2-41.2,5.2c-13.8,0-22.9-3.5-27.3-10.5c-4.5-7-5.3-17.1-2.5-30.3l0.7-3.2h109.1c2.6,0,5.2-1,7.8-3.2
				c2.6-2.1,4.1-4.5,4.7-7.1l6.1-28.6c2.3-10.8,2.5-22.2,0.5-34.1C604.5,534.9,599.7,524.7,592.1,516.2z"/>
			
				<linearGradient id="SVGID_66_" gradientUnits="userSpaceOnUse" x1="234.8032" y1="699.6816" x2="660.0181" y2="305.2462" gradientTransform="matrix(1 0 0 -1 0 861.8898)">
				<stop  offset="1.715443e-03" style="stop-color:#6DFCFF"/>
				<stop  offset="0.4647" style="stop-color:#336DE4"/>
				<stop  offset="1" style="stop-color:#07096A"/>
			</linearGradient>
			<path class="st68" d="M770.3,582.1l37.7-57.9c3.5-5.3,4.5-9.9,3.2-13.9c-1.4-4-5.2-6-11.2-6h-20.6c-7.1,0-12.6,1.4-16.4,4.2
				c-3.8,2.8-6.8,6-9.2,9.7l-26.9,42.4c-3.6,5.8-8.2,9.5-13.9,11.1l-16.9,4.8l28.6-134.5c1.2-5.5,0.4-10.1-2.5-13.7s-7-5.4-12.5-5.4
				h-17.5c-5.5,0-10.5,1.8-14.8,5.4c-4.3,3.6-7.1,8.1-8.3,13.7L616,692c-1.2,5.5-0.4,10.1,2.4,13.7c2.8,3.6,7,5.4,12.5,5.4h17.5
				c5.5,0,10.5-1.8,14.8-5.4s7.1-8.1,8.3-13.7l14.2-66.6l10-2.4l23.9,74.2c3.3,9.3,10.5,13.9,21.6,13.9h20.6
				c5.8,0,10.3-2.2,13.3-6.7c3.1-4.5,3.7-9.4,1.9-14.7L747,605.9C755.8,600.6,763.6,592.7,770.3,582.1z"/>
		</g>
		<g>
			
				<linearGradient id="SVGID_67_" gradientUnits="userSpaceOnUse" x1="180.5176" y1="642.0363" x2="605.7325" y2="247.6011" gradientTransform="matrix(1 0 0 -1 0 861.8898)">
				<stop  offset="1.715443e-03" style="stop-color:#6BFFFF"/>
				<stop  offset="0.4647" style="stop-color:#2E69E3"/>
				<stop  offset="1" style="stop-color:#000063"/>
			</linearGradient>
			<path class="st69" d="M685.2,327.4c0-28.5-14.2-60.2-44.3-69.8c-50.7,22.1-120.5,31.6-196.5,37.9
				c15.9-55.4,25.5-118.8,25.5-137.8c0.1-85.6-49-128.4-106.1-128.4c-26.9,0-52.3,7.9-65,23.7c0,60.2-12.8,172.7-28.7,253.5
				c-30.1,1.6-63.4,4.7-99.8,6.3c-112.5,7.8-153.7,52.2-153.8,99.7c0,9.3,2.5,22,8.2,31.8c3.3,5.8,9.3,9.5,16,9.9
				c47.6,3,128.8,5.9,196,5.9c-7.9,39.6-15.9,98.2-15.9,128.3c-0.1,72.9,30,112.5,76,112.6c22.2,0,42.8-6.3,50.7-14.2
				c11.1-47.5,46.1-160,62-228.1C615.4,446.2,685.1,403.4,685.2,327.4z"/>
			
				<linearGradient id="SVGID_68_" gradientUnits="userSpaceOnUse" x1="144.0066" y1="602.6763" x2="569.2216" y2="208.241" gradientTransform="matrix(1 0 0 -1 0 861.8898)">
				<stop  offset="1.715443e-03" style="stop-color:#6BFFFF"/>
				<stop  offset="0.4647" style="stop-color:#2E69E3"/>
				<stop  offset="1" style="stop-color:#000063"/>
			</linearGradient>
			<path class="st70" d="M550.9,576.1l-1.1,5.2h-63.9l1.1-5.2c1.5-7.1,4.2-13.7,8.1-19.6s8.8-10.2,14.6-12.7
				c5.8-2.5,11.5-3.8,17.1-3.8s10.6,1.3,15.3,3.8c4.6,2.5,7.6,6.7,9,12.5C552.5,562.1,552.5,568.7,550.9,576.1z M591.7,515.8
				c-7.6-8.5-16.2-14.3-25.8-17.6c-9.6-3.3-19.4-5-29.5-5c-13.2,0-25.9,2.4-38,7.1s-22.8,11.2-31.9,19.4c-9.1,8.2-16.8,17.6-23,28.2
				c-6.2,10.6-10.5,21.4-12.9,32.5l-8.9,42c-3.7,17.5-3.1,32.8,1.7,46c4.9,13.2,13.5,23.5,25.8,30.7s28.4,10.9,48.3,10.9
				c16.4,0,34.4-2.8,54.1-8.3c6-1.8,10.5-4.9,13.6-9.1c3.1-4.2,4.6-9,4.4-14.3l-0.4-7.5c-0.5-11.4-7.5-15.6-21.1-12.7
				c-16.1,3.4-29.8,5.2-41.2,5.2c-13.8,0-22.9-3.5-27.3-10.5c-4.5-7-5.3-17.1-2.5-30.3l0.7-3.2h109.1c2.6,0,5.2-1,7.8-3.2
				c2.6-2.1,4.1-4.5,4.7-7.1l6.1-28.6c2.3-10.8,2.5-22.2,0.5-34.1C604,534.5,599.3,524.3,591.7,515.8z"/>
			
				<linearGradient id="SVGID_69_" gradientUnits="userSpaceOnUse" x1="234.3501" y1="700.0697" x2="659.565" y2="305.6345" gradientTransform="matrix(1 0 0 -1 0 861.8898)">
				<stop  offset="1.715443e-03" style="stop-color:#6BFFFF"/>
				<stop  offset="0.4647" style="stop-color:#2E69E3"/>
				<stop  offset="1" style="stop-color:#000063"/>
			</linearGradient>
			<path class="st71" d="M769.8,581.7l37.7-57.9c3.5-5.3,4.5-9.9,3.2-13.9c-1.4-4-5.2-6-11.2-6h-20.6c-7.1,0-12.6,1.4-16.4,4.2
				c-3.8,2.8-6.8,6-9.2,9.7l-26.9,42.4c-3.6,5.8-8.2,9.5-13.9,11.1l-16.9,4.8l28.6-134.5c1.2-5.5,0.4-10.1-2.5-13.7s-7-5.4-12.5-5.4
				h-17.4c-5.5,0-10.5,1.8-14.8,5.4c-4.3,3.6-7.1,8.1-8.3,13.7l-53.1,249.9c-1.2,5.5-0.4,10.1,2.4,13.7c2.8,3.6,7,5.4,12.5,5.4H648
				c5.5,0,10.5-1.8,14.8-5.4s7.1-8.1,8.3-13.7l14.2-66.6l10-2.4l23.9,74.2c3.3,9.3,10.5,13.9,21.6,13.9h20.6
				c5.8,0,10.3-2.2,13.3-6.7c3.1-4.5,3.7-9.4,1.9-14.7l-30.2-83.7C755.3,600.2,763.1,592.3,769.8,581.7z"/>
		</g>
	</g>
	<g>
		
			<image style="overflow:visible;enable-background:new    ;" width="709" height="712" xlink:href="6094C637A40000BB.png"  transform="matrix(0.9986 0 0 0.9986 0.2677 8.9721)">
		</image>
	</g>
	<g>
		
			<image style="overflow:visible;enable-background:new    ;" width="709" height="712" xlink:href="6094C637A40000B9.png"  transform="matrix(0.9986 0 0 0.9986 0.2677 8.9721)">
		</image>
	</g>
</g>
</svg>
