<svg width="34" height="34" viewBox="0 0 34 34" fill="none" xmlns="http://www.w3.org/2000/svg">
<path d="M32.7649 1.63428L25.8588 0.040561C25.1084 -0.132092 24.3381 0.259697 24.0326 0.963588L20.8452 8.40093C20.5663 9.0517 20.7522 9.81536 21.3034 10.2603L25.3275 13.5539C22.9369 18.6472 18.7601 22.8838 13.5606 25.3209L10.2669 21.2968C9.81534 20.7456 9.05832 20.5597 8.40755 20.8386L0.970203 24.026C0.259671 24.3381 -0.132118 25.1084 0.0405346 25.8588L1.63425 32.7649C1.80026 33.482 2.43775 34 3.18813 34C20.1944 34 34 20.221 34 3.18815C34 2.44442 33.4887 1.80029 32.7649 1.63428Z" fill="#255FDA"/>
</svg>
