<svg width="54" height="56" viewBox="0 0 54 56" fill="none" xmlns="http://www.w3.org/2000/svg">
<path d="M14.407 15.1804C13.3477 15.4908 12.3777 16.0653 11.5816 16.8535C10.7854 17.6418 10.1872 18.62 9.83913 19.703L0 50.3125L1.54933 51.9192L17.3812 35.501C17.0658 34.8164 16.8749 34.0595 16.8749 33.2501C16.8749 30.3506 19.1414 28.0001 21.9374 28.0001C24.7334 28.0001 26.9999 30.3506 26.9999 33.2501C26.9999 36.1496 24.7334 38.5001 21.9374 38.5001C21.1569 38.5001 20.4271 38.3021 19.7669 37.9751L3.93502 54.3933L5.48435 56L35.0007 45.7965C36.045 45.4355 36.9883 44.8151 37.7484 43.9895C38.5085 43.1638 39.0624 42.1579 39.3618 41.0594L43.8748 24.5002L30.3749 10.5002L14.407 15.1804ZM52.5169 8.11258L46.1772 1.53808C44.1996 -0.512693 40.9923 -0.512693 39.0148 1.53808L33.0506 7.7232L46.5526 21.7253L52.5169 15.5402C54.4944 13.4894 54.4944 10.1644 52.5169 8.11258Z" fill="#F2F2F2"/>
</svg>
