<svg width="48" height="48" viewBox="0 0 48 48" fill="none" xmlns="http://www.w3.org/2000/svg">
<path d="M46.8363 13.8774L24.9984 23.7838C24.3609 24.0735 23.64 24.0735 23.0025 23.7838L1.1646 13.8774C-0.386948 13.1733 -0.386948 10.8287 1.1646 10.1246L23.0016 0.217259C23.3148 0.0740964 23.6551 0 23.9995 0C24.3439 0 24.6843 0.0740964 24.9975 0.217259L46.8363 10.1237C48.3879 10.8277 48.3879 13.1733 46.8363 13.8774ZM1.16366 22.1535L6.60955 19.6851L21.7631 26.5541C22.4719 26.8756 23.2247 27.0387 24 27.0387C24.7753 27.0387 25.5272 26.8756 26.2369 26.5541L41.3895 19.6851L46.8363 22.1535C48.3879 22.8566 48.3879 25.2003 46.8363 25.9034L24.9984 35.8024C24.3609 36.0911 23.64 36.0911 23.0025 35.8024L1.16366 25.9034C-0.387886 25.2003 -0.387886 22.8566 1.16366 22.1535ZM1.16366 34.1346L6.58892 31.6756L21.7631 38.5539C22.4719 38.8754 23.2247 39.0386 24 39.0386C24.7753 39.0386 25.5272 38.8754 26.2369 38.5539L41.4101 31.6756L46.8363 34.1346C48.3879 34.8377 48.3879 37.1814 46.8363 37.8845L24.9984 47.7834C24.3609 48.0722 23.64 48.0722 23.0025 47.7834L1.16366 37.8845C-0.387886 37.1814 -0.387886 34.8377 1.16366 34.1346Z" fill="#F2F2F2"/>
</svg>
