<svg width="48" height="48" viewBox="0 0 48 48" fill="none" xmlns="http://www.w3.org/2000/svg">
<path d="M10.1571 5.44116e-05H37.8429C43.4571 5.44116e-05 48 4.54291 48 10.1572V37.8429C48 43.4572 43.4571 48.0001 37.8429 48.0001H10.1571C4.54286 48.0001 0 43.4572 0 37.8429V10.1572C0 4.54291 4.54286 5.44116e-05 10.1571 5.44116e-05ZM32.475 18.0965V24.1286C32.475 27.0215 34.8214 29.3679 37.7143 29.3679V12.8465C37.7143 11.4322 36.5679 10.2858 35.1536 10.2858H18.6321C18.6321 13.1786 20.9786 15.5251 23.8714 15.5251H29.9036C31.2214 15.4608 32.5393 16.7679 32.475 18.0965ZM13.5857 25.8108H19.6179C20.9357 25.7465 22.2536 27.0536 22.1893 28.3822V34.4143C22.1893 37.3072 24.5357 39.6536 27.4286 39.6536V23.1322C27.4286 21.7179 26.2821 20.5715 24.8679 20.5715H8.34643C8.34643 23.4643 10.6929 25.8108 13.5857 25.8108Z" fill="#F2F2F2"/>
</svg>
