<svg width="59" height="36" viewBox="0 0 59 36" fill="none" xmlns="http://www.w3.org/2000/svg">
<path d="M16.6315 13.0385C16.5651 15.1596 17.6086 16.0989 17.6344 16.6954C17.6222 16.8168 17.5814 16.9335 17.5157 17.0357C17.4499 17.1378 17.361 17.2225 17.2565 17.2826L16.0765 18.1217C15.9238 18.2304 15.7438 18.2928 15.5575 18.3015C15.5179 18.2996 14.8025 18.4729 13.6695 15.9032C12.9783 16.7797 12.0988 17.4839 11.0984 17.9619C10.098 18.44 9.00317 18.6791 7.89776 18.6611C6.39697 18.7444 2.32973 17.7958 2.53899 13.3972C2.39241 9.81232 5.67884 7.58538 9.07774 7.77361C9.73226 7.77548 11.069 7.80826 13.4096 8.36078V6.898C13.6575 4.42008 12.0544 2.49749 9.27871 2.78593C9.05746 2.78686 7.4903 2.7391 5.0529 3.73271C4.37441 4.04924 4.28776 3.99679 4.0619 3.99679C3.3788 3.99679 3.65997 1.98524 3.79087 1.73052C4.27116 1.13117 7.09666 0.0120819 9.86962 0.028002C11.7237 -0.138572 13.5679 0.442721 15.0035 1.64624C15.587 2.30934 16.0322 3.08572 16.3122 3.92848C16.5922 4.77125 16.7011 5.66291 16.6324 6.54963L16.6315 13.0385ZM8.66475 16.0717C11.6543 16.0277 12.9201 14.2016 13.2086 13.2183C13.4354 12.2771 13.3976 11.6815 13.3976 10.6523C12.5061 10.4351 11.2229 10.1981 9.7507 10.1963C8.35408 10.0895 5.80329 10.7235 5.90285 13.2174C5.78854 14.7897 6.92796 16.1579 8.66475 16.0717ZM24.4212 18.2303C23.6966 18.2977 23.3592 17.7752 23.2523 17.2592L18.6614 1.84009C18.572 1.57975 18.513 1.31098 18.4844 1.03659C18.4675 0.923464 18.4954 0.808138 18.5622 0.71595C18.6289 0.623762 18.7289 0.562252 18.8402 0.544937C18.8624 0.541191 18.6439 0.544937 20.8914 0.544937C21.7008 0.462527 21.9644 1.10963 22.0483 1.51607L25.3412 14.7045L28.3981 1.51607C28.4469 1.21452 28.6691 0.479384 29.5781 0.557112H31.16C31.36 0.540255 32.1842 0.510288 32.3289 1.52824L35.4097 14.8852L38.8086 1.52824C38.8529 1.32409 39.0594 0.463464 39.9776 0.557112H41.7955C41.8738 0.544938 42.3624 0.481257 42.2794 1.36061C42.2398 1.53386 42.5938 0.362324 37.4166 17.2714C37.3106 17.7874 36.9723 18.3099 36.2477 18.2425H34.5248C33.5162 18.3502 33.3715 17.3379 33.3558 17.2358L30.299 4.39386L27.2771 17.2227C27.2623 17.3247 27.1176 18.3371 26.1082 18.2294L24.4212 18.2303ZM49.6322 18.7576C49.0901 18.7585 46.5052 18.7295 44.3444 17.6066C44.1292 17.514 43.9458 17.3586 43.8176 17.16C43.6895 16.9615 43.6222 16.7287 43.6244 16.4913V15.4846C43.6244 14.6932 44.196 14.8384 44.4384 14.933C45.364 15.3132 45.9577 15.6016 47.0943 15.832C50.4729 16.5372 51.959 15.6166 52.3231 15.4125C53.5354 14.6811 53.6312 13.0076 52.8071 12.1395C51.841 11.3163 51.38 11.2854 47.9092 10.1729C47.4815 10.0521 43.8807 8.89832 43.8724 5.26947C43.8162 2.62485 46.1817 0.00833568 50.2812 0.0298747C51.4492 0.0289382 54.5614 0.41664 55.404 1.49265C55.5284 1.68838 55.5902 1.91875 55.581 2.15193V3.09871C55.581 3.51451 55.4316 3.72241 55.132 3.72241C54.4213 3.64187 53.1602 2.67636 50.6002 2.71569C49.965 2.68198 46.9229 2.80091 47.0593 5.05408C47.0196 6.82964 49.5124 7.49547 49.7972 7.57227C53.1583 8.59958 54.2821 8.77002 55.616 10.3424C57.1961 12.426 56.3443 14.8656 56.017 15.5342C54.2581 19.0451 49.7096 18.7594 49.6322 18.7576ZM53.3381 28.5775C46.8823 33.4209 37.5107 35.999 29.5089 35.999C18.7121 36.0714 8.27923 32.0384 0.261073 24.6929C-0.340902 24.1414 0.19009 23.3856 0.922046 23.8061C9.81657 28.9747 19.887 31.6904 30.1339 31.6838C37.7861 31.6421 45.3547 30.0651 52.4051 27.0435C53.4911 26.5753 54.412 27.774 53.3381 28.5775ZM56.029 25.4599C55.203 24.3811 50.5642 24.9561 48.4872 25.208C47.8613 25.2801 47.7553 24.7285 48.3222 24.3212C52.0161 21.6831 58.0829 22.4388 58.7798 23.3257C59.4758 24.2125 58.5908 30.3877 55.1329 33.3376C54.6019 33.7936 54.094 33.553 54.33 32.9536C55.108 30.9636 56.855 26.5397 56.029 25.4599Z" fill="#F2F2F2"/>
</svg>
